<?xml version="1.0" encoding="UTF-8"?>
<!DOCTYPE svg PUBLIC "-//W3C//DTD SVG 1.1//EN" "http://www.w3.org/Graphics/SVG/1.1/DTD/svg11.dtd">
<svg xmlns="http://www.w3.org/2000/svg" version="1.1" viewBox="41 724 1917 616" style="shape-rendering:geometricPrecision; text-rendering:geometricPrecision; image-rendering:optimizeQuality; fill-rule:evenodd; clip-rule:evenodd" xmlns:xlink="http://www.w3.org/1999/xlink">
<g><path fill="#ffffff" fill-opacity="0.788" d="M 1945.98,856.2 c 1.05,0.28 2.02,0.71 2.93,1.29 c -0.2,0.4 -0.49,0.7 -0.87,0.9 c -2.16,-0.49 -4.34,-0.83 -6.56,-1.01 c -10.01,-0.4 -20.01,-0.37 -30.02,0.1 c -49.32,0.13 -98.64,0.05 -147.96,-0.25 c -6.35,0.11 -12.7,0.26 -19.05,0.46 c -6.98,-0.21 -13.96,-0.39 -20.95,-0.53 c -75,-0.03 -150,-0.05 -225,-0.07 c -7.33,0.02 -14.66,0.1 -21.99,0.25 c -2.81,0.04 -5.58,0.32 -8.33,0.84 c -0.15,-0.44 -0.29,-0.87 -0.43,-1.3 c 0.5,-0.45 1.08,-0.68 1.76,-0.69 c 3.72,0.55 6,-0.97 8.97,-1.37 c 14,0.58 28.01,0.86 42.02,0.83 c 138.96,-0.85 278.08,1.4 417.01,-0.34 c 2.83,0.17 5.66,0.47 8.47,0.89 Z M 945.85,968.4 c -39.99,-1.44 -79.34,-2.09 -119.35,0.53 c -3.66,-0.21 -12.55,2.2 -15.52,1.34 c -0.3,-0.16 -0.51,-0.4 -0.62,-0.72 c 2.67,-0.87 5.43,-1.42 8.26,-1.65 c 12.62,-0.84 25.25,-1.62 37.87,-2.36 c 18,0.34 36,0.28 53.99,-0.17 c 11.63,0.66 23.46,-0.04 34.97,1.78 c 0.44,0.31 0.58,0.73 0.4,1.25 Z M 234.07,1207.94 c -2.35,0.12 -4.71,0.11 -7.06,-0.04 c -45.16,-1.38 -90.37,-2.79 -135.51,-4.83 c -5.47,-0.64 -10.95,-1.07 -16.44,-1.29 c -2.32,-0.5 -4.67,-0.85 -7.08,-1.05 c 0.02,-0.88 0.49,-1.19 1.4,-0.94 c 6.36,0.45 12.74,0.8 19.12,1.03 c 5.65,0.68 11.32,1.23 17,1.65 c 9.66,0.15 19.33,0.25 29,0.29 c 17.31,1.24 34.64,1.95 52,2.13 c 15.62,0.6 31.24,1.36 46.85,2.28 c 0.37,0.15 0.61,0.4 0.72,0.77 Z M 540.04,1208.21 c 0.12,1.19 -1.63,0.61 -2.11,1.64 c -4.4,1.08 -8.88,1.52 -13.43,1.31 c -66.35,0.41 -132.66,-0.97 -199,-0.94 c -15.14,-0.18 -30.28,-0.45 -45.42,-0.82 c 0.13,-0.8 0.61,-1.18 1.43,-1.14 c 21.33,-0.06 42.66,0.11 63.99,0.48 c 20.01,0.1 40.03,0 60.04,-0.3 c 8.65,0.37 17.3,0.54 25.96,0.48 c 32,-0.17 64,-0.2 96,-0.09 c 4.19,0.02 8.37,-0.19 12.54,-0.62 Z"/></g>
<g><path fill="#ffffff" fill-opacity="0.259" d="M 847.24,736.58 c -0.51,1.69 -3.07,1.62 -4.07,3.13 c -2.8,4.05 -5.44,8.18 -7.91,12.42 c -0.67,-0.33 -1.22,-0.81 -1.64,-1.43 c 0.87,-0.24 1.6,-0.69 2.18,-1.35 c 0.19,-2.23 0.66,-3.4 1.97,-5.1 c 0.31,-2.2 0.47,-1.74 2.14,-2.85 c 1.4,-2.39 3.38,-4.07 5.94,-5.05 c 0.5,-0.14 0.96,-0.07 1.39,0.23 Z M 1344.47,746.91 c 0.58,1.18 0.71,2.43 0.38,3.73 c 0.37,0.52 0.86,0.67 1.47,0.44 c 0.67,1.81 -0.97,2.22 -1.95,3.31 c -0.25,1.98 -0.47,3.95 -0.68,5.92 c -1.7,1.37 -1.32,2.5 -1.42,4.43 c -0.71,1.52 -1.24,3.09 -1.6,4.72 c -0.13,0.94 -0.1,1.87 0.08,2.8 c -1.82,1.76 -1.14,3.25 -2.07,5.2 c 0.07,0.59 0.09,1.19 0.08,1.78 c -1.1,1.4 -1.96,2.94 -2.6,4.6 c -0.12,0.53 -0.17,1.05 -0.15,1.59 c -0.36,0.67 -0.73,1.35 -1.09,2.03 c 0.01,0.93 -0.08,1.84 -0.27,2.74 c -2.09,1.01 -1.81,3.43 -1.61,5.34 c -0.66,0.63 -1.34,1.23 -2.04,1.8 c 0.05,-2.48 0.32,-4.93 0.82,-7.34 c 2.21,-3.35 2.44,-7.09 4.09,-10.57 c 3.28,-10.71 5.28,-21.89 8.56,-32.52 Z M 827.8,764.88 c 0.57,0.81 0.66,1.66 0.27,2.55 c -3.07,6.15 -6.31,12.22 -9.72,18.2 c -0.09,0.39 -0.17,0.78 -0.24,1.17 c -0.34,0.06 -0.68,0.11 -1.03,0.16 c -0.14,-0.45 -0.27,-0.89 -0.41,-1.34 c 0.63,-2.15 1.57,-4.15 2.82,-6 c 0.31,-0.92 0.57,-1.84 0.78,-2.78 c 1.9,-0.76 1.35,-2.49 2.11,-3.97 c 1.26,-0.75 1.81,-1.87 1.67,-3.36 c 0.55,-0.47 1.19,-0.83 1.91,-1.07 c 0.77,-1.4 -0.74,-4.28 1.84,-3.56 Z M 807.99,800.85 c 0.71,0.09 1.43,0.2 2.14,0.33 c -1.17,1.85 -2.26,3.75 -3.28,5.7 c -1.54,1.14 -2.53,2.63 -2.98,4.48 c -0.77,1.02 -2.05,1.16 -1.57,2.78 c -4.08,6.66 -8.23,13.24 -12.44,19.74 c -0.83,-0.46 -1.25,-1.19 -1.28,-2.18 c 0.62,-1.95 0.74,-1.56 2.2,-2.41 c 0.09,-0.83 0.32,-1.62 0.69,-2.35 c 2.16,-0.37 1.25,-1.7 1.55,-3.29 c 2.53,-1.21 1.82,-1.1 2.52,-3.58 c 1.22,-1.81 2.41,-3.64 3.57,-5.48 c 0.49,-0.52 1.07,-0.94 1.72,-1.27 c 0.11,-0.82 0.32,-1.62 0.65,-2.37 c 3.14,-1.42 1.88,-4.77 4.08,-6.89 c 1.24,-0.72 2.05,-1.78 2.43,-3.21 Z M 1329.15,800.96 c -0.44,1.96 0.42,4.03 -1.82,4.71 c -0.37,2.09 0.16,3.3 -1.9,4.48 c -0.44,0.98 -0.83,1.97 -1.18,2.99 c -0.41,-1.07 -0.65,-2.18 -0.72,-3.34 c 1.22,-2.33 2.35,-4.7 3.37,-7.11 c 0.82,-0.46 1.57,-1.04 2.25,-1.73 Z M 1277.93,881.64 c 0.42,0.2 0.85,0.4 1.27,0.59 c -0.23,1.82 -0.6,1.5 -2.12,2.36 c -0.99,1.73 -3.07,2.75 -3.09,4.89 c -0.56,0.48 -1.19,0.85 -1.9,1.11 c -1.81,2.18 -3.71,4.27 -5.7,6.27 c -0.64,2.27 -0.45,1.89 -2.33,2.7 c -3.84,4.15 -7.84,8.16 -12,12 c -1.06,1.2 -0.25,2.69 -2.39,2.56 c -0.4,0.62 -0.81,1.24 -1.22,1.85 c -2.32,0.01 -5.04,3.77 -6.9,5.08 c -1.08,3.84 -3.78,2.11 -5.77,4.75 c -0.91,0.37 -1.55,0.07 -1.91,-0.89 c 2.79,-2.32 5.6,-4.61 8.44,-6.88 c 0.77,-0.26 1.49,-0.64 2.14,-1.13 c 1.7,-2.03 3.57,-3.89 5.61,-5.59 c 4.66,-4.91 9.43,-9.7 14.29,-14.39 c 0.69,-0.9 1.28,-1.86 1.78,-2.89 c 1.12,-0.15 2.05,-0.68 2.76,-1.58 c 2.88,-3.74 5.89,-7.34 9.04,-10.81 Z M 1423.65,918.69 c 0.17,1.12 0.04,2.21 -0.39,3.27 c -1.45,2.66 -2.86,5.36 -4.24,8.09 c -0.86,-0.47 -1.29,-1.21 -1.29,-2.22 c 0.67,-1.81 0.11,-1.85 1.96,-2.6 c 0.9,-1.77 1.82,-3.52 2.78,-5.26 c 0.28,-0.54 0.67,-0.96 1.18,-1.28 Z M 252.01,956.76 c 0.05,0.66 0.36,1.16 0.91,1.5 c -0.24,1 -7.77,2.8 -9.1,3.05 c -11.2,3.86 -21.51,8.67 -32.17,13.86 c -0.4,0.17 -0.67,0.45 -0.8,0.85 c -1.03,0.15 -2.03,0.08 -3.01,-0.21 c -0.17,-0.76 0.07,-1.34 0.71,-1.73 c 2.81,-0.21 7.31,-3.69 10.31,-4.54 c 1.34,-2.22 3.41,-1.13 4.83,-3.22 c 1.7,-0.41 4.25,-0.11 5.08,-2.04 c 1.05,-0.2 2.1,-0.42 3.15,-0.66 c 2.14,-3.09 1.42,-1.04 4.62,-1.46 c 2.09,-0.77 4.17,-1.6 6.23,-2.49 c 0.74,-0.39 1.42,-0.88 2.03,-1.45 c 2.66,0.88 4.69,-0.97 7.21,-1.46 Z M 1173.26,959.16 c -0.81,0.29 -1.56,0.69 -2.26,1.19 c -2.07,0.12 -3.93,0.81 -5.57,2.09 c -2.12,0.3 -7.2,-0.19 -8.26,2.23 c -1.57,0.16 -3,-0.72 -3.92,1.13 c -0.52,0.25 -1.05,0.33 -1.62,0.23 c -0.59,0.63 -1.28,1.1 -2.07,1.4 c -1.05,-0.2 -2.08,-0.5 -3.07,-0.91 c -1.18,0.07 -2.32,0.29 -3.45,0.66 c 0.29,-3.49 8.26,-0.73 7.72,-3.18 c 2.01,-1.59 13.41,-3.7 16.22,-4.23 c 1.86,0.04 4.71,-1.91 6.28,-0.61 Z M 207.84,975.81 c -0.24,1.11 -0.88,1.92 -1.9,2.44 c -2.27,1.04 -4.45,2.25 -6.54,3.62 c -0.82,0.19 -1.64,0.2 -2.47,0.03 c 1.48,-1.51 0.54,-1.81 3.35,-2.13 c 0.98,-1.83 0.52,-1.59 2.95,-1.81 c 1.32,-1.18 2.86,-1.9 4.61,-2.15 Z M 714.92,998.96 c -0.24,1.39 1.33,1.48 2.27,1.28 c -0.8,0.22 -1.41,0.7 -1.83,1.43 c -2.56,-0.23 -2.65,0.46 -3.94,2.14 c -2.85,0.28 -2.34,0.14 -3.93,2.11 c -0.57,0.12 -1.14,0.24 -1.72,0.35 c -0.73,0.94 -1.6,1.75 -2.63,2.4 c -0.58,0.2 -1.14,0.13 -1.67,-0.21 c 0.34,0.56 0.34,1.1 -0.01,1.61 c -3.12,-0.27 -2.31,-0.07 -4.08,1.81 c -2.47,0.11 -1.57,0.57 -2.88,2.05 c -0.5,0.1 -0.98,0.24 -1.46,0.41 c 0.43,-1.51 2.4,-1.92 1.86,-3.66 c 1.54,-0.8 2.95,-1.81 4.22,-3.03 c 5.26,-2.96 10.53,-5.86 15.8,-8.69 Z M 1881.79,1014.79 c 0.36,0.64 0.86,1.16 1.49,1.56 c -0.36,1.73 -0.67,1.42 -2.2,2.23 c -1.47,1.35 -2.53,2.96 -3.18,4.83 c -0.91,0.83 -2.1,0.13 -2.01,1.99 c -0.3,0.46 -0.73,0.71 -1.28,0.74 c -0.39,0.61 -0.78,1.21 -1.18,1.8 c -0.5,0.11 -0.97,0.31 -1.39,0.61 c -3.11,3.21 -6.27,6.38 -9.47,9.52 c -0.88,2.49 -1.26,2.7 -3.72,3.31 c -1.12,1.45 -4.55,3.33 -4.87,5.08 c -0.67,0.33 -1.31,0.7 -1.92,1.1 c 0.08,1.95 -2.43,0.94 -3.4,2.59 c -1.19,3.06 -2.2,2.15 -4.52,3.47 c -0.69,0.98 -1.39,1.94 -2.11,2.89 c -0.72,0.33 -1.47,0.58 -2.24,0.76 c -1.35,1.83 -0.73,1.63 -2.99,2.01 c -1.45,1.91 -1.01,1.95 -3.71,1.79 c -0.26,-0.76 -0.09,-1.41 0.51,-1.94 c 2.3,-1.73 4.7,-3.33 7.18,-4.8 c 2.19,-1.68 4.34,-3.43 6.45,-5.26 c 0.78,-0.3 1.52,-0.69 2.2,-1.18 c 1.5,-1.52 3.11,-2.88 4.84,-4.08 c 0.74,-0.77 1.37,-1.62 1.87,-2.57 c 0.64,-0.56 1.35,-1.04 2.12,-1.43 c 7.4,-7.11 17.34,-17.14 23.53,-25.02 Z M 676.04,1026.1 c 0.11,2.71 -2.09,3.61 -4.3,4.14 c -1.58,1.87 -4.26,2.82 -4.55,5.47 c -1.2,0.74 -1.73,0.07 -2.03,1.89 c -0.44,0.34 -0.94,0.52 -1.5,0.55 c -0.42,0.57 -0.82,1.16 -1.21,1.77 c -2.14,0.27 -0.81,2.86 -3.84,3.16 c -0.43,0.58 -0.82,1.2 -1.17,1.84 c -2.04,0.47 -6.06,5.64 -7.62,7.38 c -0.51,0.85 -0.96,1.72 -1.34,2.61 c -2.06,0.43 -3.18,2.86 -4.33,4.42 c -0.58,-0.46 -1.07,-0.99 -1.48,-1.61 c 7.69,-8.79 15.78,-17.24 24.12,-25.42 c 1.24,-0.32 2.04,-1.09 2.38,-2.31 c 1.58,-0.03 4.53,-2.74 5.54,-3.87 c 0.44,-0.15 0.89,-0.16 1.33,-0.02 Z M 1288.8,1052.59 c 1.1,0.23 2.19,0.43 3.29,0.62 c -1.51,0.88 -3.13,1.4 -4.88,1.55 c -0.52,0.31 -0.98,0.7 -1.37,1.17 c -1.39,-0.2 -2.78,-0.17 -4.16,0.08 c -2.2,1.79 -3.42,1.65 -6.08,2.04 c -1.8,0.86 -3.65,1.59 -5.56,2.18 c -1.97,0.84 -4,1.5 -6.1,1.98 c -1.84,0.02 -3.63,0.31 -5.39,0.9 c -0.58,-0.03 -1.16,-0.09 -1.74,-0.2 c 0.98,-1.27 5.19,-2.27 6.81,-2.43 c 1.56,-0.53 3.1,-1.11 4.63,-1.74 c 0.8,0.01 1.6,-0.04 2.39,-0.18 c 1.6,-0.6 3.22,-1.18 4.87,-1.72 c 3.23,0.41 4.62,-2.49 7.6,-2.02 c 1.44,-0.6 4.14,-2.37 5.69,-2.23 Z M 1758.92,1090.69 c 0.01,2.68 -6.13,1.52 -6.95,3.44 c -0.36,-0.13 -0.72,-0.11 -1.06,0.07 c -1.12,0.6 -2.23,1.2 -3.33,1.81 c -1.71,-0.07 -3.4,-0.27 -5.08,-0.62 c -1.5,0.55 -3.04,0.83 -4.63,0.83 c -1.15,0.56 -2.25,1.16 -3.3,1.82 c -1.01,0.01 -2.02,0 -3.02,-0.01 c -3.41,-0.95 -6.81,-0.89 -10.2,0.18 c -0.94,0.02 -1.87,-0.06 -2.8,-0.24 c -1.52,0.47 -2.85,1.24 -4.01,2.3 c -5.02,0.05 -10.04,0.09 -15.06,0.1 c -1.33,-0.38 -2.66,-0.79 -3.98,-1.21 c -21,0.43 -42,0.42 -63,-0.02 c -1.32,0.42 -2.64,0.83 -3.95,1.26 c -8.69,-0.1 -17.38,-0.12 -26.07,-0.07 c -2.82,-1.14 -0.16,-2.65 -4.71,-1.63 c -0.37,-0.36 -0.79,-0.61 -1.28,-0.76 c -6.31,-0.34 -12.64,-0.59 -18.99,-0.74 c -1.33,0.19 -2.66,0.44 -3.98,0.76 c -7.7,0.03 -15.41,0.04 -23.12,0.04 c -1.06,-0.65 -2.15,-1.25 -3.28,-1.81 c -0.5,-0.24 -1.03,-0.34 -1.58,-0.31 c -14,-0.34 -28.02,-0.5 -42.04,-0.49 c -13.33,-0.08 -26.67,-0.01 -40,0.19 c -2.68,0.4 -5.37,0.63 -8.07,0.67 c -0.67,0.25 -1.33,0.53 -1.99,0.82 c -1.74,-0.57 -1.38,0.69 -2.85,0.95 c -4.03,-0.03 -8.05,-0.02 -12.07,0.02 c -1.34,-0.3 -2.68,-0.56 -4.02,-0.78 c -2.07,-0.02 -4.07,0.32 -6.01,1.01 c -0.87,-0.07 -1.74,-0.09 -2.61,-0.06 c -1.22,0.58 -2.34,1.29 -3.38,2.12 c -1,0.09 -1.99,0.05 -2.98,-0.13 c -2.56,-1.68 -4.4,-0.7 -7.06,0.04 c -2.28,-0.34 -3.9,-0.56 -4.89,1.9 c -1.68,0.64 -2.27,-1.19 -4.07,-0.82 c -1.69,0.67 -3.45,0.97 -5.27,0.89 c -2.31,1.04 -0.63,3.39 -4.75,1.27 c -1.41,0.48 -2.85,0.71 -4.34,0.69 c -0.83,0.22 -1.47,0.72 -1.92,1.48 c -0.92,-0.1 -1.85,-0.15 -2.78,-0.14 c -1.87,1.26 -4.02,-0.01 -5.2,2.19 c -0.6,0.07 -1.18,0.04 -1.77,-0.1 c -1.34,0.51 -2.72,0.78 -4.15,0.81 c -0.4,0.16 -0.71,0.41 -0.94,0.76 c 0.25,-0.69 0.71,-1.23 1.39,-1.63 c -0.04,-0.17 -0.08,-0.35 -0.12,-0.53 c 0.58,-0.8 1.36,-1.29 2.34,-1.48 c 5.77,-1.74 12.33,-2.44 17.88,-4.7 c 1.57,0.36 3.15,0.38 4.74,0.07 c 2.15,-0.55 4.27,-1.14 6.37,-1.76 c 8.68,-1.56 18.77,-2.44 27.68,-3.83 c 36.46,-2.32 73.81,-2.95 110.33,-1.06 c 0.32,0.62 0.84,0.97 1.56,1.02 c 9.29,-0.82 18.59,0.2 27.95,-0.01 c 5.31,-0.15 22.86,1.39 26.09,1.24 c 39.63,1.15 79.29,0.91 118.9,0.43 c 5.68,-2.17 13.9,-1.79 20.03,-2.25 c 2.82,-1.51 9.49,-1.83 12.78,-2.11 c 2.78,-1.03 5.65,-1.66 8.62,-1.88 Z M 88.96,1091.65 c -0.24,1.42 -0.24,2.83 0.01,4.23 c -0.73,0.63 -1.31,1.38 -1.73,2.25 c -0.86,-0.03 -1.71,-0.04 -2.56,-0.05 c 1.53,-1.89 2.76,-3.95 3.7,-6.19 c 0.19,-0.08 0.39,-0.16 0.58,-0.24 Z M 1305.17,1139.26 c -1.06,1.15 -2.89,1.48 -3.25,3.14 c -0.73,0.34 -1.5,0.56 -2.33,0.66 c -0.95,2.16 -0.74,1.73 -2.99,2.17 c -0.95,2 -2.55,3.59 -4.85,4.03 c -1.6,3.05 -2.64,2.18 -5.15,3.83 c -0.94,1.79 -0.45,1.71 -2.79,2.29 c -4.62,2.84 -5.98,7.96 -10.81,10.13 c 0.62,0.94 -3.08,2.33 -2.63,3.36 c -1.69,0 -1.4,1.05 -1.86,2.19 c -2.21,2.75 -10.42,7.9 -10.62,11.32 c -0.51,0.52 -1.12,0.92 -1.82,1.19 c -2.39,1.95 -3.63,5.65 -5.89,7.11 c -1.71,2.21 -3.39,4.43 -5.05,6.67 c -0.52,-0.39 -0.93,-0.86 -1.26,-1.42 c 1.72,-1.28 2.98,-2.92 3.8,-4.91 c 2.83,-3.38 5.6,-6.82 8.31,-10.31 c 1.89,-0.33 5.12,-4.88 6.04,-6.53 c 2.7,-2.42 5.09,-5.13 7.17,-8.11 c 1.33,-0.77 2.6,-1.64 3.83,-2.63 c 2.31,-2.3 4.65,-4.57 7,-6.82 c 1.49,-0.72 2.52,-1.84 3.1,-3.38 c 3.66,-2.91 11.32,-8.11 14.06,-11.25 c 2.98,0.98 5.92,-4.81 7.99,-2.73 Z M 52.62,1161.22 c -0.27,0.58 -0.52,1.18 -0.74,1.78 c -1.38,-0.16 -1.05,1.98 -1.64,2.77 c -1.07,1.6 -2.05,3.26 -2.93,4.97 c -0.49,1.12 -0.53,2.25 -0.13,3.4 c -0.9,1.69 -0.67,2.57 -2.42,3.79 c -0.76,-0.44 -1.07,-1.14 -0.93,-2.07 c 0.35,-0.34 0.53,-0.76 0.52,-1.26 c -0.41,-2.1 -0.04,-1.65 1.28,-2.69 c 0.5,-1.96 3.03,-6.52 2.77,-8.27 c 0.71,-0.45 1.16,-1.09 1.36,-1.9 c 0.93,-0.28 1.89,-0.46 2.86,-0.52 Z M 708.74,1203.73 c 0.53,0.69 0.65,1.45 0.35,2.27 c -0.57,1.2 -0.93,2.44 -1.09,3.73 c -0.86,0.58 -1.59,1.3 -2.17,2.17 c -0.33,0.1 -0.61,0.27 -0.84,0.52 c -2.12,3.41 -4.4,6.68 -6.86,9.83 c -0.45,-0.16 -0.9,-0.32 -1.35,-0.48 c 0.47,-1.52 1,-1.38 2.11,-2.39 c 0.74,-1.59 1.52,-3.13 2.36,-4.62 c 0.49,-0.53 1.03,-0.99 1.64,-1.38 c 0.34,-0.72 0.67,-1.44 0.99,-2.17 c 1.61,-1.88 4.31,-5.11 4.86,-7.48 Z"/></g>
<g><path fill="#ffffff" fill-opacity="0.192" d="M 1948.01,854.82 c 0.3,1.23 -1.24,1.28 -2.03,1.38 c -2.81,-0.42 -5.64,-0.72 -8.47,-0.89 c -138.93,1.74 -278.05,-0.51 -417.01,0.34 c -14.01,0.03 -28.02,-0.25 -42.02,-0.83 c -2.97,0.4 -5.25,1.92 -8.97,1.37 c -0.68,0.01 -1.26,0.24 -1.76,0.69 c -0.36,-0.05 -0.71,-0.09 -1.07,-0.14 c 0.14,-0.64 0.46,-1.16 0.97,-1.56 c 2.25,-0.1 4.49,-0.2 6.74,-0.29 c 0.51,-0.41 1.02,-0.81 1.54,-1.19 c 5.53,0.07 11.05,-0.01 16.57,-0.24 c 86.67,0.04 173.33,0.19 260,0.46 c 1.31,-0.4 2.62,-0.83 3.92,-1.28 c 1.01,0.29 2.03,0.56 3.05,0.83 c 1.01,-0.3 2.03,-0.57 3.05,-0.83 c 1.69,0.17 3.34,0.5 4.96,0.97 c 2.26,-0.84 4.59,-1.15 7,-0.93 c 1.33,0.34 2.67,0.65 4.01,0.93 c 3.34,-0.85 6.68,-0.83 10.01,0.05 c 3.45,-0.19 6.57,0.42 9.95,-0.55 c 2.67,0.73 5.35,0.73 8.03,0.01 c 2.01,0.16 4.02,0.34 6.02,0.55 c 3.66,-0.25 7.33,-0.25 11,-0.01 c 2.3,-0.37 4.62,-0.54 6.95,-0.51 c 1.66,0.58 3.33,0.58 5,-0.01 c 3.27,0.96 4.89,0.3 8.05,-0.23 c 1.68,0.2 3.34,0.44 5,0.75 c 2.67,-0.14 5.34,-0.17 8,-0.07 c 0.67,-0.19 1.35,-0.34 2.05,-0.44 c 2.33,0.73 4.66,0.71 6.98,-0.06 c 1.65,0.62 3.31,0.66 4.99,0.1 c 3.59,0.88 7.31,0.25 10.97,0.49 c 1.37,-0.31 2.72,-0.65 4.07,-1.04 c 2.37,-0.18 4.72,-0.03 7.03,0.46 c 2.62,-0.38 5.25,-0.55 7.91,-0.51 c 1.01,0.3 2.01,0.65 2.99,1.06 c 0.66,-0.22 1.31,-0.46 1.97,-0.69 c 1,0.37 2.01,0.68 3.04,0.93 c 11.62,-0.24 23.23,-0.39 34.82,-0.47 c 0.91,0.3 1.78,0.72 2.6,1.27 c 0.69,0.11 1.39,0.15 2.09,0.13 Z M 1428.71,907.89 c 0.05,1.14 0.28,2.24 0.69,3.3 c -0.92,1.54 -1.78,3.1 -2.57,4.7 c -0.92,0.8 -1.98,1.17 -3.18,1.09 c 0.22,-0.72 0.44,-1.44 0.66,-2.16 c 0.92,-0.37 1.64,-0.98 2.14,-1.84 c 0.49,-1.8 1.24,-3.5 2.26,-5.09 Z M 945.85,968.4 c 2,0.12 3.99,0.17 5.98,0.16 c 13.05,0.39 26.09,0.95 39.13,1.68 c 36.46,0.82 72.93,0.9 109.4,0.25 c 2.19,-0.17 4.38,-0.39 6.56,-0.67 c -0.02,0.48 0.21,0.75 0.68,0.82 c 2.09,-0.04 4.85,-1.02 6.59,0.53 c -3.91,0.8 -7.84,1.52 -11.77,2.15 c -37.17,-0.14 -74.33,-0.13 -111.5,0.05 c -1.39,-0.81 -2.87,-1.49 -4.44,-2.03 c -15.5,-0.09 -31.02,-0.1 -46.56,-0.03 c -1.43,-0.72 -2.91,-1.39 -4.43,-2 c -0.99,0.09 -1.95,0.35 -2.87,0.79 c -1.73,-0.14 -3.43,-0.42 -5.12,-0.84 c -27.32,-0.24 -54.65,-0.25 -82,-0.05 c -1.26,0.14 -2.35,0.65 -3.28,1.52 c -0.94,-0.2 -1.88,-0.3 -2.83,-0.3 c -0.57,0.52 -1.22,0.82 -1.98,0.9 c -5.63,-0.05 -11.27,-0.08 -16.9,-0.1 c -2.36,0.52 -4.73,0.9 -7.12,1.14 c -0.57,0.53 -1.22,0.85 -1.97,0.97 c -3.62,0.16 -7.6,-0.9 -10.92,0.94 c -2.03,-0.26 -3.95,0.08 -5.77,1.03 c -1.08,0.02 -2.17,0.01 -3.25,-0.01 c -1.16,0.29 -2.32,0.59 -3.48,0.91 c -0.5,-0.89 -1.25,-1.5 -2.23,-1.82 c 6.22,-1.24 12.47,-2.38 18.73,-3.4 c 2.19,-0.24 4.35,-0.48 6.48,-0.72 c 2.97,0.86 11.86,-1.55 15.52,-1.34 c 40.01,-2.62 79.36,-1.97 119.35,-0.53 Z"/></g>
<g><path fill="#ffffff" fill-opacity="0.141" d="M 571.04,950.75 c -0.12,0.4 -0.37,0.7 -0.75,0.9 c -1.61,0.02 -7.81,0.11 -8.26,2.26 c -5.13,0.16 -10.88,0.02 -15.74,1.72 c -1.74,0.11 -2.52,-0.49 -4.23,0.28 c -4.58,0.33 -9.17,0.49 -13.76,0.46 c -4.49,-0.1 -8.95,0.18 -13.38,0.84 c -6.92,0.61 -13.86,0.94 -20.81,1.01 c -22.73,0.02 -45.41,1.18 -68.16,0.58 c -10.02,-0.33 -20.03,-0.52 -30.05,-0.57 c -0.21,0 -0.42,-0.01 -0.63,-0.01 c -0.32,-0.85 -0.92,-1.34 -1.81,-1.5 c -1.93,0.04 -3.85,0.01 -5.78,-0.08 c -1.22,-0.69 -2.53,-1.04 -3.93,-1.03 c -0.42,-0.16 -0.72,-0.43 -0.9,-0.83 c 0.81,0.49 1.69,0.77 2.64,0.82 c 5.98,0.2 11.95,0.21 17.93,0.04 c 0.97,0.41 1.94,0.79 2.94,1.13 c 26.06,-0.02 52.12,-0.02 78.17,0 c 2.16,0.36 2.38,-0.95 4.05,-1.12 c 4.31,-0.01 8.61,0.06 12.92,0.2 c 3.42,0.1 6.76,-0.31 10.02,-1.24 c 5.37,0.29 10.74,0.32 16.11,0.09 c 1.27,-0.77 2.61,-1.44 4.02,-1.98 c 1.61,-0.02 3.23,-0.01 4.84,0.04 c 2.76,1.64 5.18,1.03 8,-0.02 c 1.65,0.33 3.32,0.56 5.01,0.67 c 2.98,-0.44 5.97,-0.75 8.98,-0.92 c 1.12,-0.34 2.2,-0.77 3.26,-1.27 c 3.8,1.29 5.67,-0.79 9.3,-0.47 Z M 1205.06,1073.83 c -0.12,1.13 0.27,2.06 1.17,2.77 c -7.27,1.31 -14.6,2.27 -21.99,2.86 c -0.5,-2.49 -2.63,-1.55 -4.43,-1.62 c 2.85,-0.92 5.76,-1.59 8.73,-2.04 c 2.58,1.15 3.23,0.52 5.77,-0.03 c 3.06,0.26 3.11,0.19 5.11,-2 c 1.7,-0.17 3.37,-0.05 5.01,0.38 c 0.21,-0.11 0.42,-0.22 0.63,-0.32 Z M 941.96,1078.43 c 1.4,0.95 2.01,0.55 1.22,2.31 c -18.02,-0.89 -34.86,-2.52 -52.95,-0.12 c -2.77,0.24 -5.53,0.27 -8.29,0.08 c -0.09,-0.35 -0.17,-0.71 -0.25,-1.07 c 0.05,-0.45 0.31,-0.73 0.76,-0.84 c 5.07,-0.17 10.12,-0.53 15.14,-1.06 c 0.6,-0.54 1.2,-1.07 1.81,-1.6 c 3.79,0.23 25.81,-1.2 27.3,0.92 c 4.15,1.41 10.87,0.54 15.26,1.38 Z M 62.85,1202.13 c 0.47,-0.39 1.01,-0.65 1.61,-0.79 c 1.68,0.26 3.36,0.55 5.04,0.88 c 1.87,0.09 3.72,-0.06 5.56,-0.44 c 5.49,0.22 10.97,0.65 16.44,1.29 c 45.14,2.04 90.35,3.45 135.51,4.83 c -0.03,0.79 -0.04,1.59 -0.03,2.38 c -0.42,-0.34 -0.9,-0.56 -1.44,-0.67 c -5.01,0.1 -10.02,-0.01 -15.04,-0.32 c -1.32,0.43 -2.67,0.77 -4.04,1.01 c -3.66,-0.25 -7.31,-0.52 -10.96,-0.81 c -1.35,0.22 -2.7,0.39 -4.06,0.51 c -3.53,-0.89 -6.29,-2.8 -9.91,-0.87 c -1,-0.38 -2.01,-0.72 -3.04,-1.01 c -3.98,-0.05 -7.97,0.04 -11.95,0.26 c -4.31,-0.69 -8.66,-1.07 -13.04,-1.13 c -1.34,0.31 -2.66,0.69 -3.97,1.14 c -6.03,0.13 -12.04,-0.09 -18.03,-0.67 c -2.05,-0.09 -4.85,1.21 -5.95,-1.28 c -5.93,-0.31 -11.86,-0.36 -17.79,-0.17 c -3.05,-0.6 -6.14,-0.97 -9.26,-1.09 c -1.6,0.59 -3.26,0.96 -4.96,1.14 c -0.7,0.07 -1.35,-0.09 -1.95,-0.47 c -0.39,-0.89 -1.03,-1.44 -1.92,-1.66 c -3.73,-0.01 -7.46,0.04 -11.18,0.15 c -1.97,-0.49 -3.97,-0.86 -5.99,-1.12 c -1.35,0.44 -2.71,0.78 -4.09,1.03 c -1.62,-1.57 -3.37,-2 -5.56,-2.12 Z M 866.94,1335.62 c 14.34,0.36 28.69,0.53 43.03,0.52 c 53.85,0.82 107.72,0.18 161.54,1.54 c 24.35,-0.56 50.41,1.32 74.48,-1.17 c -0.17,0.59 -0.02,1.05 0.47,1.39 c 0.95,-0.15 1.87,-0.05 2.74,0.3 c -0.7,0.26 -1.38,0.58 -2.04,0.95 c -1.26,-0.12 -2.5,-0.09 -3.74,0.1 c -0.46,1.4 -1.43,2.01 -2.91,1.82 c -34.34,-0.04 -68.68,-0.05 -103.02,-0.05 c -1.4,0.2 -2.39,-0.34 -2.99,-1.6 c -0.31,0.42 -0.63,0.83 -0.95,1.25 c -1.34,0.53 -2.69,0.55 -4.05,0.05 c -0.32,-0.9 -0.92,-1.46 -1.8,-1.68 c -39.36,0.15 -78.73,0.22 -118.1,0.21 c -0.97,-0.35 -1.96,-0.66 -2.97,-0.92 c -2.38,0 -4.75,-0.05 -7.13,-0.16 c -1.31,0.41 -2.62,0.81 -3.93,1.21 c -4.39,-0.1 -8.77,-0.11 -13.16,-0.03 c -2.04,-0.13 -0.81,-1.8 -2.78,-1.97 c -7.65,-0.07 -15.3,-0.16 -22.95,-0.26 c 0.49,-0.52 1.1,-0.8 1.82,-0.86 c 2.81,-0.37 5.87,0.84 8.44,-0.64 Z"/></g>
<g><path fill="#ffffff" fill-opacity="0.169" d="M 1341.49,731.58 c -1.02,-0.66 -2.11,-0.84 -3.25,-0.55 c -0.95,-1.22 -3.6,-1.39 -4.97,-0.84 c -0.13,-0.33 -0.27,-0.66 -0.41,-0.99 c -0.77,-1.95 -2.22,-2.73 -4.35,-2.32 c -12.33,0.09 -24.65,0.22 -36.98,0.41 c -41.32,0.05 -82.65,0.04 -123.98,-0.03 c -1.01,0.23 -2.03,0.42 -3.06,0.57 c -7.03,-0.04 -14.06,-0.09 -21.09,-0.16 c -1.01,0.01 -1.46,0.51 -1.36,1.5 c -77.51,-0.44 -155.02,-0.52 -232.54,-0.24 c -14,0.04 -28,-0.22 -42,-0.77 c -1.44,0.35 -2.83,0.85 -4.16,1.51 c -2.03,-0.07 -4.04,0.01 -6.05,0.23 c -0.75,-1.26 -0.36,-1.88 1.16,-1.88 c 2.15,-0.28 4.63,0.86 6.23,-1.06 c 0.94,-0.11 1.88,-0.21 2.83,-0.3 c 77.99,0.16 155.98,0.25 233.99,0.25 c 20.66,-0.2 41.33,-0.26 62,-0.16 c 1.34,-0.29 2.69,-0.55 4.04,-0.77 c 36,-0.04 71.99,-0.01 107.99,0.08 c 9.66,0.01 19.32,-0.11 28.97,-0.37 c 1.34,0.4 2.68,0.82 4.01,1.27 c 8.56,-0.24 17.12,-0.3 25.67,-0.17 c 1.45,1.24 2.04,0.76 3.81,1.03 c 1.48,1.03 4.32,1.17 3.5,3.76 Z M 1343.45,733.56 c 0.78,-0.26 1.42,-0.07 1.92,0.58 c 0.53,1.26 1.15,2.47 1.88,3.63 c 0,2.56 0.13,5.11 0.39,7.65 c -0.35,1.21 -0.89,2.33 -1.62,3.37 c -0.09,0.79 0.01,1.55 0.3,2.29 c -0.61,0.23 -1.1,0.08 -1.47,-0.44 c 0.33,-1.3 0.2,-2.55 -0.38,-3.73 c 0.63,-2.94 0.74,-5.91 0.33,-8.89 c 0.38,-1.72 -0.07,-3.2 -1.35,-4.46 Z M 322.07,950.81 c 0.75,0.42 1.55,0.65 2.41,0.69 c 3.09,-0.2 6.23,1.15 8.97,-0.73 c 2.05,-0.26 4.06,-0.09 6.01,0.51 c 0.4,0.82 1.03,1.3 1.88,1.46 c 3.39,0.19 6.79,0.18 10.18,-0.05 c 2.27,0.71 4.59,1.08 6.98,1.1 c 2.36,-0.17 4.69,-0.52 6.97,-1.06 c 1.22,0.75 2.53,1.04 3.94,0.86 c 0.52,0.61 1.16,1.02 1.92,1.24 c 3.84,-0.06 7.68,-0.08 11.52,-0.05 c 0.18,0.4 0.48,0.67 0.9,0.83 c 1.4,-0.01 2.71,0.34 3.93,1.03 c 1.93,0.09 3.85,0.12 5.78,0.08 c 0.89,0.16 1.49,0.65 1.81,1.5 c -4.72,-0.01 -9.42,-0.23 -14.12,-0.66 c -6.53,-1.5 -14.46,-1.53 -21.19,-1.49 c -5.6,-0.25 -11.19,-0.77 -16.74,-1.56 c -6.84,-0.5 -13.7,-0.8 -20.56,-0.9 c -0.41,-0.02 -0.69,-0.21 -0.86,-0.57 c 0.11,-0.74 0.2,-1.48 0.27,-2.23 Z M 941.96,1078.43 c 4.23,-0.05 8.46,-0.02 12.69,0.1 c 2.26,0.65 4.53,1.18 6.82,1.59 c 1.69,0.21 3.37,0.12 5.03,-0.27 c 1.65,0.32 3.32,0.59 5,0.78 c 1.6,-0.45 3.22,-0.79 4.86,-1.02 c 1.87,0.06 1.95,0.98 3.04,2.07 c 1.36,-0.32 2.71,-0.64 4.06,-0.99 c 3.63,2.37 10.87,1.62 15.09,1.34 c 0.82,-0.04 1.61,0.07 2.39,0.34 c 3.16,0.29 6.33,0.52 9.52,0.7 c 1,0.42 4,0.58 4.38,1.67 c -4.77,-0.14 -9.53,-0.19 -14.29,-0.14 c -7.81,-1.04 -15.66,-1.63 -23.54,-1.75 c -11.29,0.37 -22.48,-2.17 -33.83,-2.11 c 0.79,-1.76 0.18,-1.36 -1.22,-2.31 Z"/></g>
<g><path fill="#ffffff" fill-opacity="0.29" d="M 833.62,750.7 c 0.42,0.62 0.97,1.1 1.64,1.43 c -1.4,3.95 -4.11,7.84 -5.04,11.75 c -0.57,0.92 -1.37,1.25 -2.42,1 c 0.12,-1.12 0.27,-2.24 0.44,-3.35 c 2.29,-2.08 0.84,-3.94 3.58,-5.22 c 0.3,-1.98 0.9,-3.85 1.8,-5.61 Z M 1323.53,809.8 c 0.07,1.16 0.31,2.27 0.72,3.34 c -0.32,0.28 -0.57,0.63 -0.75,1.03 c -0.29,0.99 -0.58,1.98 -0.86,2.97 c -1.15,0.77 -1.73,1.85 -1.74,3.26 c -1.14,1.19 -2.16,2.04 -2.12,3.87 c -1.15,1.5 -1.83,0.83 -1.83,3.24 c -0.56,0.76 -1.05,1.57 -1.46,2.43 c -1.99,0.58 -2.24,2.77 -2.6,4.5 c -1.51,1.49 -2.23,2.24 -2.49,4.47 c -0.53,0.5 -1.04,1.01 -1.52,1.55 c -0.17,0.73 -0.44,1.44 -0.79,2.1 c -1.21,1.5 -2.29,3.08 -3.24,4.77 c -1.31,1.26 -1.87,0.99 -1.96,3.08 c -1.34,1.3 -1.9,0.76 -1.98,3.01 c -1.26,1.3 -1.84,0.82 -2.02,2.96 c -0.54,0.48 -1.09,0.95 -1.66,1.4 c -0.2,0.77 -0.43,1.53 -0.69,2.28 c -1.58,1.84 -2.53,0.19 -2.62,3.4 c -1.17,1.31 -1.9,0.71 -2.05,2.91 c -2.54,1.81 -5.45,6.34 -6.8,9.17 c -1.76,0.86 -3.03,1.77 -3.1,3.91 c -1.34,1.15 -2,0.86 -2.77,2.78 c -0.42,-0.19 -0.85,-0.39 -1.27,-0.59 c 0.25,-2.08 2.59,-1.3 1.87,-3.62 c 6.88,-8.22 12.63,-17.25 18.96,-25.85 c 1.42,-1.9 2.56,-3.94 3.42,-6.14 c 1.13,-0.28 1.83,-1.02 2.1,-2.22 c 1.24,-1.05 3.66,-4.22 3.57,-5.85 c 5.63,-9.33 10.77,-18.49 15.68,-28.16 Z M 785.13,837.19 c -0.33,1.08 -0.25,2.14 0.22,3.18 c -9.03,12.2 -17.95,23.47 -28.44,34.46 c -3.64,3.24 -7.18,6.57 -10.62,10 c -1.26,1.16 -2.68,2.08 -4.25,2.76 c -1.08,1.21 -1.47,1.91 -3.04,2.65 c -0.44,-0.15 -0.87,-0.3 -1.3,-0.45 c 2.1,-0.38 2.88,-2.87 4.35,-4.23 c 0.72,-0.28 1.45,-0.56 2.18,-0.84 c 1.65,-1.68 3.37,-3.26 5.17,-4.75 c 1.83,-1.93 3.68,-3.85 5.55,-5.76 c 0.22,-0.44 0.32,-0.9 0.29,-1.4 c 0.62,-0.41 1.27,-0.78 1.95,-1.12 c 0.07,-1.34 0.69,-2.38 1.85,-3.11 c 1.85,-0.9 1.85,0.01 2.39,-2.63 c 0.93,-1.16 2.07,-2.02 3.43,-2.6 c 1.24,-1.24 2.11,-2.7 2.62,-4.37 c 0.95,-0.73 1.89,-1.45 2.84,-2.17 c 1.9,-1.62 0.92,-3.51 3.55,-4.45 c 0.58,-0.74 1.16,-1.49 1.73,-2.25 c 0.18,-0.76 0.46,-1.47 0.84,-2.14 c 1.55,-0.61 2.44,-1.75 2.65,-3.44 c 0.51,-0.45 1.04,-0.88 1.58,-1.3 c 0.44,-2.22 0.61,-1.6 2.13,-2.98 c 0.36,-1.18 0.66,-3.22 2.33,-3.06 Z M 1443.09,884 c -4.36,9.19 -8.69,18.2 -13.69,27.19 c -0.41,-1.06 -0.64,-2.16 -0.69,-3.3 c 0.44,-1.39 0.99,-2.75 1.64,-4.07 c 1.16,-0.72 1.74,-1.78 1.76,-3.18 c 1.32,-1 2.01,-2.34 2.07,-4.02 c 0.47,-0.51 0.99,-0.96 1.56,-1.35 c 0.72,-2.59 2.44,-3.83 2.42,-6.73 c 0.72,-0.51 1.28,-1.15 1.68,-1.93 c 1.92,1.03 1.43,-2.76 3.25,-2.61 Z M 1233.87,924.91 c 0.36,0.96 1,1.26 1.91,0.89 c 0.38,2.21 -2.45,1.06 -1.42,3.5 c -0.59,-0.39 -1.24,-0.56 -1.94,-0.48 c -0.73,1.53 -1.94,2.35 -3.65,2.47 c -0.44,0.55 -0.89,1.1 -1.35,1.62 c -1.2,-0.01 -2.01,0.52 -2.45,1.61 c -0.64,0.42 -1.35,0.69 -2.12,0.82 c -1.32,1.7 -0.98,1.53 -3.08,1.94 c -1.22,1.53 -0.96,1.51 -2.85,1.89 c -2.47,1.23 -4.87,2.59 -7.19,4.08 c -0.33,0.36 -0.59,0.76 -0.78,1.21 c -1.67,0.93 -1.9,1.57 -4.02,1.52 c -1.02,0.34 -1.7,0 -2.04,-1.03 c 11.25,-5.78 20.79,-12.52 30.98,-20.04 Z M 287.01,951.6 c 10.84,-0.42 21.67,-0.38 32.5,0.12 c 0.97,0.01 1.82,-0.29 2.56,-0.91 c -0.07,0.75 -0.16,1.49 -0.27,2.23 c -0.69,0.4 -1.45,0.55 -2.25,0.44 c -11.39,-0.99 -22.77,-0.97 -34.15,0.04 c -0.45,-0.01 -0.85,-0.15 -1.21,-0.4 c -0.23,-1.39 1.92,-1.37 2.82,-1.52 Z M 170.94,1000.8 c 0.38,0.86 0.33,1.69 -0.15,2.49 c -4.39,3.35 -8.68,6.83 -12.87,10.44 c -1.69,1.53 -3.45,2.98 -5.29,4.35 c -0.4,0.53 -0.59,1.13 -0.58,1.79 c -8.27,6.34 -14.61,14.5 -21.96,21.78 c -0.33,0.25 -0.69,0.45 -1.08,0.58 c -0.63,0.4 -1.19,0.9 -1.67,1.5 c -0.49,0.05 -0.98,0.03 -1.47,-0.07 c -0.06,-2.99 2.48,-0.59 2.59,-3.72 c 1.3,-0.66 2.39,-1.57 3.27,-2.72 c 0.31,-0.46 0.45,-0.96 0.43,-1.51 c 0.64,-0.37 1.26,-0.76 1.88,-1.17 c 0.04,-0.29 0.08,-0.57 0.12,-0.86 c 0.61,-0.4 1.22,-0.79 1.83,-1.19 c -0.04,-0.57 0.16,-1.02 0.63,-1.35 c 1.73,0.1 1.26,-1.18 1.8,-2.22 c 3.19,-3.11 6.37,-6.24 9.52,-9.38 c 3.13,-0.94 5.99,-4.47 8.44,-6.65 c 0.37,-0.63 0.71,-1.28 1.01,-1.95 c 0.55,-0.45 1.08,-0.94 1.58,-1.45 c 1.64,-0.74 3.11,-1.24 4.35,-2.66 c 0.39,-1.42 1.32,-2.2 2.79,-2.32 c 1.9,-1.27 2.44,-3.1 4.83,-3.71 Z M 627.64,1077.88 c -0.05,1.45 -0.16,2.9 -0.32,4.33 c -0.96,1.84 -2.06,3.62 -3.28,5.34 c -1.94,1.03 -3.03,2.64 -3.27,4.85 c -1.4,1.26 -1.58,0.93 -1.88,3.01 c -0.53,0.47 -1.1,0.89 -1.71,1.26 c -0.13,2.93 -1.68,2.49 -3.1,4.54 c -0.43,-1.18 -0.34,-2.31 0.27,-3.4 c 4.21,-6.78 8.63,-13.42 13.29,-19.93 Z M 1173.97,1077.82 c 1.93,1.01 3.88,1.01 5.84,0.02 c 1.8,0.07 3.93,-0.87 4.43,1.62 c -5,1.14 -10.07,1.66 -15.21,1.56 c 0.14,-3.49 3.92,-0.37 4.94,-3.2 Z M 97.89,1079.8 c 0.22,0.72 0.36,1.44 0.42,2.18 c -1.49,1.53 -2.56,3.29 -3.23,5.3 c -1.3,0.82 -2.71,1.44 -4.22,1.85 c 0.38,-2.2 0.26,-1.47 1.93,-2.87 c 0.4,-2.01 0.12,-1.93 2.05,-2.92 c 1.22,-1.08 1.1,-3.82 3.05,-3.54 Z M 816.11,1105.22 c -10.87,6.03 -20.92,13.45 -30.97,20.53 c -1,0.79 -1.93,1.65 -2.79,2.6 c -0.25,-0.56 -0.5,-1.12 -0.76,-1.68 c 2.49,-2.06 5.01,-4.08 7.57,-6.04 c 0.27,-0.43 0.49,-0.88 0.66,-1.36 c 1.05,-0.15 2.04,-0.48 2.97,-0.98 c 1.58,-2.07 1.63,-3.05 4.43,-3.53 c 0.45,-0.55 0.91,-1.11 1.36,-1.66 c 1.19,0.06 2.02,-0.44 2.48,-1.52 c 0.66,-0.44 1.4,-0.73 2.2,-0.86 c 0.42,-0.55 0.87,-1.07 1.35,-1.56 c 1.52,-0.33 3.83,-1.01 4.44,-2.62 c 0.57,-0.38 1.2,-0.65 1.88,-0.82 c 1.91,0.19 3.27,-1.64 5.18,-0.5 Z M 76.82,1110.92 c 0.06,0.7 0.18,1.39 0.35,2.08 c 0.13,2.08 -9.8,18.12 -11.44,21.11 c -1.73,3.7 -3.47,7.39 -5.21,11.08 c -0.77,-0.26 -1.38,-0.73 -1.83,-1.4 c 1.06,-1.03 1.73,-2.29 2.01,-3.76 c 1.81,-3.03 3.77,-6.02 4.36,-9.56 c 1.34,-1.84 1.45,-3.9 3.6,-5.28 c 0.63,-1.41 1.35,-2.76 2.17,-4.07 c 0.31,-2.02 1.27,-3.65 2.89,-4.89 c 0.65,-1.12 1.11,-2.32 1.41,-3.58 c 0.63,-0.52 1.19,-1.1 1.69,-1.73 Z M 771.62,1134.83 c 0.44,0.54 0.95,1 1.54,1.37 c -20.13,16.73 -36.29,35.73 -53.1,55.56 c -1.63,1.99 -3.17,4.06 -4.62,6.21 c -0.39,0.36 -0.8,0.7 -1.22,1.02 c -0.29,-0.72 -0.41,-1.47 -0.35,-2.25 c 1.07,0.35 1.92,-2.48 2.22,-3.23 c 0.58,-0.4 1.18,-0.78 1.8,-1.13 c 1.41,-2.21 2.98,-4.3 4.71,-6.27 c 0.75,-2.2 0.46,-1.8 2.26,-2.74 c 1.68,-2.55 0.76,-3.56 3.97,-5.04 c 1.28,-1.37 2.52,-2.78 3.72,-4.21 c 0.73,-2.22 2.17,-3.8 4.31,-4.76 c 0.72,-1.28 1.69,-2.31 2.91,-3.11 c 0.34,-0.44 0.49,-0.93 0.47,-1.49 c 0.61,-0.4 1.22,-0.8 1.83,-1.2 c -0.14,-1.94 1.26,-0.91 1.95,-2.04 c -0.1,-2.01 3.71,-4.45 4.85,-6.08 c 0.69,-0.33 1.38,-0.67 2.07,-1.01 c 1.1,-1.23 2.27,-2.39 3.49,-3.49 c 0.34,-0.67 0.68,-1.34 1.04,-1.99 c 1.17,-1.14 2.32,-2.29 3.44,-3.47 c 3.25,-0.94 6.9,-5.27 9.43,-7.64 c 0.46,-1.71 1.56,-2.72 3.28,-3.01 Z M 686.7,1237.7 c 0.42,0.19 0.84,0.37 1.26,0.56 c 0.32,0.73 0.28,1.44 -0.12,2.14 c -1.91,3.35 -3.96,6.61 -6.13,9.79 c -0.97,3.01 -2.61,5.58 -4.92,7.71 c -0.59,0.34 -1.17,0.68 -1.75,1.04 c -0.66,-2.91 2.79,-1.57 2.16,-5.37 c 0.75,-0.6 1.37,-1.33 1.86,-2.18 c 0.64,-2.14 -0.51,-1.79 1.82,-2.86 c 0,-2.26 0.94,-4.04 2.81,-5.34 c 0.76,-1.07 1.25,-2.25 1.45,-3.55 c 0.68,-0.53 1.2,-1.18 1.56,-1.94 Z M 1201.21,1269.24 c -2.14,4.48 -6.42,11.41 -7.52,15.85 c -1.9,1.16 -5.53,9.71 -6.03,12.05 c -2.68,1.27 -0.64,3.46 -3.15,5.06 c -1.03,2.15 0.21,2.46 -2.02,3.96 c -0.87,2.3 -0.26,2.35 -2.25,3.57 c -0.97,1.81 -1.76,3.7 -2.35,5.65 c -2.22,1.72 -3.67,3.96 -4.33,6.7 c -2.91,4.28 -6.43,6.86 -10.04,10.13 c -2.64,0.05 -1.3,1.07 -2.99,1.82 c -0.86,0.13 -10.95,3.9 -11.33,4.17 c -0.87,-0.35 -1.79,-0.45 -2.74,-0.3 c -0.49,-0.34 -0.64,-0.8 -0.47,-1.39 c 13.81,-2.7 18.59,-7.05 26.95,-18.06 c 9.26,-14.33 16.35,-31.24 24.7,-46.46 c 0.7,-1.57 1.89,-2.48 3.57,-2.75 Z"/></g>
<g><path fill="#ffffff" fill-opacity="0.753" d="M 1142.04,729.17 c 61.83,0.57 123.62,0.8 185.46,-0.4 c 1.79,0.07 3.58,0.22 5.36,0.43 c 0.14,0.33 0.28,0.66 0.41,0.99 c -1.53,1.07 -3.98,-0.13 -5.77,0.12 c -6.03,-0.23 -12,0.98 -18,-0.03 c -14,0.03 -28,0.04 -42,0.02 c -1.34,0.16 -2.69,0.34 -4.02,0.54 c -21.99,-0.08 -43.97,-0.09 -65.95,-0.01 c -3.01,-0.66 -6.04,-0.71 -9.07,-0.14 c -0.98,-0.15 -1.97,-0.28 -2.96,-0.39 c -26.66,0.01 -53.33,0.01 -80,-0.02 c -1.34,0.16 -2.68,0.32 -4.02,0.47 c -2.64,-0.63 -5.29,-0.64 -7.95,-0.05 c -32.34,-0.33 -64.68,-0.45 -97.03,-0.35 c -1.66,0.05 -3.32,0.18 -4.97,0.38 c -1.68,-0.08 -3.36,-0.19 -5.03,-0.32 c -15.98,0.19 -31.96,0.3 -47.94,0.31 c -1.36,-0.14 -2.71,-0.3 -4.07,-0.45 c -5.99,0.32 -11.99,0.47 -17.99,0.44 c -16,-0.26 -32,-0.47 -48,-0.61 c -3,0.35 -6.02,0.6 -9.05,0.73 c -0.91,0.25 -1.82,0.5 -2.74,0.73 c 0.01,-0.61 0.2,-1.16 0.58,-1.66 c 2.01,-0.22 4.02,-0.3 6.05,-0.23 c 1.33,-0.66 2.72,-1.16 4.16,-1.51 c 14,0.55 28,0.81 42,0.77 c 77.52,-0.28 155.03,-0.2 232.54,0.24 Z M 1250.06,911.31 c -2.04,1.7 -3.91,3.56 -5.61,5.59 c -0.65,0.49 -1.37,0.87 -2.14,1.13 c -0.39,-2.06 3.38,-3.99 4.41,-5.64 c 0.94,-1 2.05,-1.36 3.34,-1.08 Z M 632.95,941.69 c 0.3,0.09 0.5,0.28 0.62,0.56 c -1.69,0.35 -3.25,1 -4.71,1.94 c -2.06,0.36 -4.13,0.69 -6.21,1 c -1.04,0.23 -7.9,3.24 -7.72,0.79 c 1.69,-0.24 3.28,-0.79 4.76,-1.64 c 2.83,-0.1 5.49,-0.77 8,-2 c 1.74,-0.35 3.49,-0.57 5.26,-0.65 Z M 1371.8,996.97 c -0.02,0.7 -0.26,1.31 -0.71,1.84 c -1.32,1.26 -2.52,2.63 -3.6,4.09 c -0.44,0.43 -0.97,0.66 -1.6,0.7 c -0.23,-1.62 3.5,-5.35 4.75,-6.45 c 0.37,-0.17 0.76,-0.23 1.16,-0.18 Z M 1856.14,1041.24 c -0.5,0.95 -1.13,1.8 -1.87,2.57 c -1.73,1.2 -3.34,2.56 -4.84,4.08 c -0.68,0.49 -1.42,0.88 -2.2,1.18 c 0.07,-1.38 0.72,-2.43 1.94,-3.16 c 1.72,-1.3 3.38,-2.67 4.96,-4.12 c 0.61,-0.42 1.28,-0.6 2.01,-0.55 Z M 118.74,1054.86 c 0.04,0.73 -0.12,1.41 -0.5,2.04 c -3.04,3.6 -5.95,7.3 -8.73,11.09 c -0.4,0.49 -0.91,0.73 -1.53,0.73 c -0.04,-0.92 0.2,-1.76 0.73,-2.52 c 1.38,-1.33 2.55,-2.83 3.5,-4.48 c 0.55,-0.47 1.1,-0.93 1.65,-1.4 c 1.58,-2.17 2.38,-4.12 4.88,-5.46 Z M 1162.93,1081.18 c 0.58,0.6 0.82,1.31 0.72,2.12 c -3.24,-0.13 -6.5,-0.1 -9.77,0.12 c -0.57,-0.21 -0.81,-0.61 -0.73,-1.21 c 3.24,-0.57 6.5,-0.92 9.78,-1.03 Z M 977.01,1082.85 c 7.88,0.12 15.73,0.71 23.54,1.75 c 4.76,-0.05 9.52,0 14.29,0.14 c 27.07,0.97 54.14,0.98 81.21,0.02 c 0.26,2.29 4.44,0.79 6.05,1.46 c -0.51,1.11 -2.66,-0.39 -3.6,-0.09 c -2.71,0.5 -8.23,-0.44 -10.28,1.38 c -3.24,-0.09 -6.48,-0.21 -9.72,-0.36 c -19.06,0.14 -38.11,0.24 -57.13,0.3 c 0.14,-0.31 0.26,-0.63 0.35,-0.97 c -8.4,-0.1 -16.81,-0.51 -25.22,-1.21 c -4.3,-0.01 -8.61,0.02 -12.92,0.1 c -1.01,-0.26 -2,-0.57 -2.98,-0.95 c -1.75,-0.32 -3.5,-0.31 -5.24,0.03 c 0.81,-0.27 1.36,-0.81 1.65,-1.6 Z M 559.1,1196.31 c -0.12,2.07 -4.85,5.41 -6.22,7.07 c -0.77,0.82 -1.71,1.32 -2.82,1.49 c 0.05,-0.59 0.27,-1.1 0.69,-1.52 c 2.34,-2.35 4.76,-4.61 7.26,-6.78 c 0.33,-0.22 0.69,-0.3 1.09,-0.26 Z"/></g>
<g><path fill="#ffffff" fill-opacity="0.275" d="M 816.67,785.62 c 0.14,0.45 0.27,0.89 0.41,1.34 c -0.54,1.4 -1.04,2.82 -1.48,4.25 c -1.2,1.46 -2.38,2.94 -3.54,4.45 c -0.17,0.54 -0.28,1.1 -0.31,1.67 c -0.7,1.01 -1.83,1.12 -1.43,2.66 c -0.06,0.39 -0.13,0.79 -0.19,1.19 c -0.71,-0.13 -1.43,-0.24 -2.14,-0.33 c 1.59,-2.6 3.11,-5.27 4.55,-8.01 c 0.37,-0.73 0.54,-1.51 0.5,-2.33 c 0.48,-0.55 1.08,-0.97 1.79,-1.24 c 0.38,-1.32 0.99,-2.54 1.84,-3.65 Z M 737.7,889.79 c 0.43,0.15 0.86,0.3 1.3,0.45 c -0.52,1.95 -2.32,2.41 -3.81,3.42 c -1.21,1.62 -2.74,2.82 -4.58,3.6 c -0.39,0.41 -0.59,0.89 -0.6,1.45 c -4.58,4.28 -12.98,9.09 -18.12,13.08 c -1.68,0.41 -3.3,1 -4.87,1.78 c -1.54,1.11 -3.11,2.19 -4.71,3.25 c -0.25,0.25 -0.35,0.54 -0.27,0.88 c -0.7,0.01 -1.37,0.12 -2.03,0.35 c -1.38,0.4 -2.78,0.64 -4.22,0.71 c 1.48,-1.02 2.79,-2.21 3.95,-3.57 c 0.84,-0.18 1.68,-0.33 2.52,-0.44 c 0.48,-0.5 0.96,-0.99 1.46,-1.46 c 1.48,0.06 2.52,-0.58 3.11,-1.93 c 0.77,-0.29 1.57,-0.49 2.39,-0.61 c 1.36,-2.06 1.49,-1.42 3.54,-2.26 c 1.18,-0.54 2.1,-1.34 2.78,-2.42 c 1.22,0.05 1.97,-0.51 2.26,-1.69 c 1.49,-0.69 2.57,-0.02 3.19,-1.93 c 0.97,-0.3 1.9,-0.69 2.81,-1.16 c 1.82,-1.84 1.22,-3.06 4.48,-3.53 c 0.4,-0.59 0.86,-1.13 1.37,-1.61 c 1.5,-0.31 2.73,-1.07 3.7,-2.29 c 0.95,-1.93 2.4,-3.28 4.35,-4.07 Z M 1948.61,897.85 c 0.42,0.67 0.98,1.21 1.67,1.6 c -0.66,2.47 -1.41,4.91 -2.26,7.33 c -1.07,2.35 -3.21,6.08 -2.41,8.65 c -0.27,0.52 -0.71,0.83 -1.34,0.92 c -0.6,-2.5 1.89,-2.97 0.22,-5.57 c 1.51,-4.27 2.88,-8.58 4.12,-12.93 Z M 1417.73,927.83 c 0,1.01 0.43,1.75 1.29,2.22 c -3.83,6.8 -7.87,13.45 -12.13,19.96 c -1.41,0.44 -2.94,3.81 -3.27,5.2 c -0.53,0.45 -1.06,0.9 -1.59,1.36 c -0.32,0.77 -0.68,1.53 -1.08,2.27 c -1.38,2.57 -7.44,10.08 -8.02,12.19 c -1.08,-0.17 -2.53,2.32 -3.32,2.98 c -0.95,1.1 -1.53,2.37 -1.74,3.79 c -3.07,3.34 -14.47,16.53 -16.07,19.17 c -0.4,-0.05 -0.79,0.01 -1.16,0.18 c -1.25,1.1 -4.98,4.83 -4.75,6.45 c -2.51,1.45 -22.69,20.65 -27.91,23.74 c -8.1,5.45 -16.08,11.43 -24.94,15.82 c 0.76,-1.45 1.76,-2.72 3.02,-3.81 c 1.13,-0.38 2.18,-0.93 3.13,-1.65 c 0.43,-0.85 1.02,-1.56 1.77,-2.14 c 2.67,-0.58 4.97,-1.86 6.89,-3.84 c 1.53,-0.15 2.54,-0.94 3.02,-2.35 c 0.7,-0.43 1.47,-0.67 2.32,-0.71 c 0.68,-0.65 1.4,-1.25 2.16,-1.81 c 1.23,-2.4 2.07,-1.56 4.08,-2.87 c 1.35,-2.74 1.78,-3.53 4.98,-4.08 c 0.58,-2.21 2.57,-3.73 4.74,-4.28 c 1.66,-0.87 2.48,-2.12 3.29,-3.73 c 1.94,-1.71 3.79,-3.51 5.56,-5.39 c 0.52,-0.21 1.06,-0.33 1.62,-0.38 c 0.94,-0.86 -0.04,-2.1 1.97,-2 c 0.39,-0.64 0.75,-1.3 1.07,-1.98 c 1.22,-0.3 2.25,-0.93 3.09,-1.89 c 1.93,-2.22 3.9,-3.31 4.7,-6.31 c 0.73,-0.66 1.54,-1.17 2.45,-1.53 c 1.11,-1.05 1.87,-2.31 2.3,-3.76 c 0.39,-0.36 0.86,-0.55 1.39,-0.57 c 0.28,-0.68 0.6,-1.34 0.96,-1.97 c 1.59,0.1 2.86,-2.98 4.02,-3.96 c 0.22,-0.77 0.53,-1.5 0.93,-2.19 c 1.52,-0.61 2.38,-1.74 2.59,-3.39 c 1.03,-0.59 1.91,-1.37 2.64,-2.33 c 0.62,-1.79 0.05,-2 2.11,-2.9 c 0.69,-1.04 1.25,-2.13 1.68,-3.28 c 0.49,-0.15 0.92,-0.4 1.29,-0.75 c 0.69,-1.06 1.24,-2.19 1.66,-3.37 c 2.15,-0.5 2.67,-3.35 4.29,-4.69 c 0.2,-0.86 0.28,-1.75 0.23,-2.66 c 1.68,-1.07 3.11,-2.42 4.27,-4.06 c 0.06,-0.82 0.2,-1.6 0.4,-2.35 c 0.29,0.11 0.58,0.23 0.87,0.34 c -0.09,-0.3 -0.18,-0.61 -0.26,-0.92 c 0.84,-0.88 1.42,-1.92 1.73,-3.12 c 1.07,-1.88 2.26,-3.67 3.58,-5.38 c 1.79,-0.46 1.15,-2 1.82,-3.25 c 0.74,-0.2 1.33,-0.62 1.75,-1.24 c 0.53,-1.23 0.9,-2.49 1.11,-3.8 c 1.32,-0.46 3.52,-3.73 3.47,-4.98 Z M 1923.16,956.94 c 0.68,-0.07 1.37,-0.07 2.05,0 c -0.29,0.43 -0.46,0.91 -0.51,1.42 c -1.43,1.31 -1.63,0.86 -1.8,3.05 c -2.03,1.64 -2.12,1.05 -1.83,4.08 c -0.55,0.33 -1.11,0.3 -1.66,-0.08 c 0.95,1.51 -0.39,1.62 -1.05,2.61 c -0.45,2.47 -1.38,1.74 -2.49,3.32 c -2,3.26 -4.09,6.46 -6.27,9.61 c -1.16,2.15 -0.04,2.24 -2.32,3.8 c -0.44,2.13 -0.34,1.71 -1.98,3.03 c -0.19,0.79 -0.45,1.56 -0.79,2.3 c -1.12,0.94 -1.95,2.09 -2.48,3.46 c -0.64,0.37 -1.28,0.72 -1.94,1.06 c -1.79,1.83 -3.01,3.98 -3.67,6.44 c -0.65,0.7 -1.44,1.21 -2.36,1.53 c -1.37,2.24 -5.77,6.44 -6.08,8.86 c -0.53,0.51 -1.16,0.91 -1.86,1.2 c -1.06,1.15 -2,2.39 -2.84,3.72 c -0.63,-0.4 -1.13,-0.92 -1.49,-1.56 c 15.87,-17.63 28.27,-38.25 41.37,-57.85 Z M 785.77,974.39 c 0.98,0.32 1.73,0.93 2.23,1.82 c -0.53,0.15 -1.08,0.3 -1.63,0.44 c -0.64,-0.18 -1.3,-0.24 -1.96,-0.17 c -2.73,0.62 -5.47,1.22 -8.23,1.81 c -1.48,0.75 -3.04,1.25 -4.68,1.5 c -1.85,1.84 -1.81,0.41 -4.02,0.86 c -1.98,0.98 -4.06,1.55 -6.24,1.71 c -1.61,0.6 -3.21,1.21 -4.8,1.82 c -0.57,0.02 -1.14,0.06 -1.71,0.12 c -1.59,0.71 -3.15,1.47 -4.7,2.3 c -2.14,0.5 -4.28,1.04 -6.41,1.62 c -0.32,0.56 -0.72,1.01 -1.21,1.37 c -1.38,0.24 -2.75,0.58 -4.1,1.01 c -1.6,0.85 -3.26,1.53 -4.99,2.01 c -1.8,0.88 -3.51,1.87 -5.13,3 c -2.74,0.4 -4.7,1.02 -6.99,2.63 c 0.68,-1.06 1.29,-2.17 1.82,-3.34 c 0.74,-0.08 1.49,-0.16 2.23,-0.24 c 1.58,-2.18 3.62,-1.87 5.69,-3.3 c 17.52,-7.08 36.25,-13.65 54.83,-16.97 Z M 687.77,1015.94 c -0.23,1.2 -0.84,2.19 -1.83,2.96 c -1.09,0.79 -1.92,1.78 -2.49,2.97 c -1.06,0.15 -2.02,0.56 -2.88,1.2 c -0.25,0.72 -0.64,1.33 -1.17,1.84 c -1.14,0.34 -2.26,0.74 -3.36,1.19 c 0.32,-0.98 0.64,-1.97 0.95,-2.96 c 3.59,-1.33 7.36,-6.45 10.78,-7.2 Z M 1256.81,1062.91 c 0.15,0.45 0,0.73 -0.45,0.87 c -1.02,-0.09 -1.81,0.27 -2.35,1.07 c -5.99,2.09 -12.66,3.39 -18.49,5.65 c -1.84,0.64 -4.54,-1.37 -5.74,0.43 c -0.93,0.09 -1.53,-0.3 -1.79,-1.18 c 1.83,0.32 3.4,-0.17 4.73,-1.48 c 0.61,0.01 1.22,0.07 1.82,0.18 c 2.29,-0.69 4.34,-0.54 6.2,-2.29 c 2.14,-0.18 4.15,-0.81 6.02,-1.89 c 2.5,0.57 4.46,-0.62 6.72,-1.54 c 1.11,-0.08 2.23,-0.02 3.33,0.18 Z M 633.29,1073.04 c -0.2,0.44 -0.35,0.9 -0.44,1.37 c -1.45,1.3 -1.64,0.85 -2,2.99 c -0.62,0.36 -1.23,0.75 -1.81,1.17 c -0.58,0.75 -0.79,3.48 -1.72,3.64 c 0.16,-1.43 0.27,-2.88 0.32,-4.33 c 0.77,-1.45 1.67,-2.81 2.68,-4.1 c 0.98,-0.32 1.97,-0.57 2.97,-0.74 Z M 1808.86,1073.67 c 0.21,0.74 0.68,1.22 1.42,1.45 c -1.71,0.78 -3.41,1.56 -5.11,2.36 c -0.41,0.35 -0.74,0.76 -1.01,1.22 c -1.02,0.25 -2.05,0.47 -3.09,0.67 c -0.39,0.34 -0.7,0.75 -0.93,1.22 c -0.82,0.08 -1.64,0.19 -2.46,0.31 c -4.88,1.88 -9.74,3.76 -14.56,5.63 c -5.37,1.03 -10.64,2.31 -15.83,3.85 c -0.6,0.37 -1.22,0.69 -1.86,0.95 c -2.3,0.63 -4.65,1.02 -7.05,1.15 c -1.17,0.87 -2.48,1.16 -3.93,0.87 c -0.86,0.16 -1.69,0.42 -2.48,0.78 c 0.82,-1.92 6.96,-0.76 6.95,-3.44 c 1.02,-0.3 2.04,-0.61 3.05,-0.93 c 2.44,-0.31 4.89,-0.68 7.33,-1.12 c 1.9,-0.64 3.81,-1.27 5.72,-1.88 c 11.51,-3.63 22.93,-7.61 33.84,-13.09 Z M 1373.65,1107.01 c 0.04,0.18 0.08,0.36 0.12,0.53 c -0.68,0.4 -1.14,0.94 -1.39,1.63 c -0.14,1.13 -1.24,0.11 -1.93,0.42 c -2.04,1.11 -3.83,-0.03 -5.27,2.12 c -1.77,0.35 -4.01,-0.02 -4.99,1.95 c -2.26,-0.03 -4.32,0.44 -5.94,2.17 c -1.83,0 -4.24,-0.34 -5.07,1.82 c -1.09,-0.04 -2.13,0.17 -3.11,0.64 c -0.84,-2.7 3.56,-1.38 3.73,-3.37 c 1.73,-1.27 21.42,-8.88 23.85,-7.91 Z M 781.59,1126.67 c 0.26,0.56 0.51,1.12 0.76,1.68 c -3.35,2.28 -6.1,5.28 -9.19,7.85 c -0.59,-0.37 -1.1,-0.83 -1.54,-1.37 c 1.97,-1.59 3.91,-3.22 5.82,-4.89 c 0.75,-1.86 2.13,-2.95 4.15,-3.27 Z M 48.16,1191 c 6.88,7.97 10.38,7.11 19.82,9.73 c 2.41,0.2 4.76,0.55 7.08,1.05 c -1.84,0.38 -3.69,0.53 -5.56,0.44 c -1.68,-0.33 -3.36,-0.62 -5.04,-0.88 c -0.6,0.14 -1.14,0.4 -1.61,0.79 c -1.63,-2 -3.38,1.78 -4.18,-1.46 c -2.04,-1.15 -4.22,-0.22 -5.49,-2.35 c -1.44,-0.52 -2.83,-1.13 -4.19,-1.84 c -0.66,-0.94 -1.13,-1.98 -1.43,-3.11 c 0.23,-0.78 0.43,-1.57 0.6,-2.37 Z"/></g>
<g><path fill="#ffffff" fill-opacity="0.102" d="M 227.01,1207.9 c 2.35,0.15 4.71,0.16 7.06,0.04 c 5.17,-0.11 10.3,0.2 15.41,0.94 c 10.2,0.01 20.4,0.18 30.6,0.52 c 15.14,0.37 30.28,0.64 45.42,0.82 c 66.34,-0.03 132.65,1.35 199,0.94 c 4.55,0.21 9.03,-0.23 13.43,-1.31 c 1.17,-0.07 2.3,0.12 3.37,0.59 c -1.19,1 -2.55,1.67 -4.09,1.99 c -0.21,0.88 -0.74,1.4 -1.6,1.58 c -16.01,0.6 -32.56,-0.28 -48.15,0.34 c -14.7,-0.15 -29.26,-0.23 -43.96,0 c -5.92,-1.58 -10.99,-0.13 -16.97,-0.3 c -39.01,-0.08 -78.01,-0.07 -117.02,0.03 c -2.98,0.37 -1.69,-1.83 -3.8,-2.06 c -10.56,0.63 -20.7,-0.56 -31.21,-0.74 c -2.04,0.03 -4.03,0.33 -5.99,0.89 c -2.52,-0.67 -11.11,-0.55 -14.11,-0.2 c -4.77,-1.62 -9.16,0.47 -13.9,-1.77 c -3.34,1.02 -2.66,1.1 -6.01,-0.06 c -2.5,0.13 -5.01,0.18 -7.51,0.14 c -0.01,-0.79 0,-1.59 0.03,-2.38 Z"/></g>
<g><path fill="#ffffff" fill-opacity="0.231" d="M 1332.86,729.2 c -1.78,-0.21 -3.57,-0.36 -5.36,-0.43 c -61.84,1.2 -123.63,0.97 -185.46,0.4 c -0.1,-0.99 0.35,-1.49 1.36,-1.5 c 7.03,0.07 14.06,0.12 21.09,0.16 c 1.03,-0.15 2.05,-0.34 3.06,-0.57 c 41.33,0.07 82.66,0.08 123.98,0.03 c 12.33,-0.19 24.65,-0.32 36.98,-0.41 c 2.13,-0.41 3.58,0.37 4.35,2.32 Z M 675,927.21 c -0.01,0.6 -0.01,1.21 0.02,1.81 c -3.74,1.28 -7.54,2.39 -11.39,3.31 c -0.35,0.13 -0.64,0.33 -0.88,0.61 c -2.01,1.65 -5.41,0.76 -7.71,2.62 c -4.94,1.38 -9.9,2.56 -14.88,3.54 c 0.31,-0.75 0.59,-1.52 0.84,-2.3 c 1.64,0.46 2.9,-0.01 3.79,-1.42 c 3.07,0.16 5.51,-0.04 7.98,-2.08 c 2.56,-0.28 5.04,-0.04 6.95,-2.06 c 3.44,0.67 11.8,-3.66 15.28,-4.03 Z M 287.01,951.6 c -0.9,0.15 -3.05,0.13 -2.82,1.52 c -0.51,0.41 -1.09,0.63 -1.74,0.65 c -5.61,-0.03 -11.1,0.73 -16.49,2.29 c -3.94,0.05 -9.56,2.73 -13.04,2.2 c -0.55,-0.34 -0.86,-0.84 -0.91,-1.5 c 0.59,0.15 1.18,0.14 1.77,-0.03 c 1.88,-0.7 3.79,-1.34 5.71,-1.9 c 2.13,-0.37 4.8,0.55 6.28,-1.51 c 0.92,0.07 1.84,0.17 2.76,0.31 c 2.66,-0.66 5.35,-0.98 8.09,-0.94 c 0.84,-0.38 1.47,-1.01 1.88,-1.87 c 1.45,-0.37 2.79,-0.09 4.01,0.85 c 1.49,-0.01 3,-0.03 4.5,-0.07 Z M 1180.83,954.57 c 1.4,0.66 2.86,0.87 4.39,0.65 c -1.75,0.78 -3.54,1.47 -5.35,2.09 c -0.41,0.29 -0.81,0.58 -1.21,0.89 c -1.29,0.08 -2.5,0.41 -3.65,1 c -0.31,-3.58 3.1,-1.02 4.06,-2.89 c 0.59,-0.58 1.18,-1.16 1.76,-1.74 Z M 196.93,981.9 c 0.97,1.22 -1.67,1.79 -1.94,2.98 c -2.8,1.97 -10.37,7.79 -13.14,8.54 c -0.99,-0.66 -1.1,-1.46 -0.33,-2.42 c 1.65,-0.56 3.06,-1.47 4.23,-2.73 c 1.35,-0.16 2.35,-0.84 3.02,-2.02 c 2.06,-0.41 1.53,-0.72 2.76,-2.04 c 2.65,0.03 3.16,-1.64 5.4,-2.31 Z M 881.69,1079.63 c 0.08,0.36 0.16,0.72 0.25,1.07 c -2.3,2.6 -8.05,1.94 -11.21,2.66 c -11.01,2.9 -26.15,6.96 -36,12.55 c -1.68,-0.36 -3.35,1.2 -5.08,1.37 c -4.04,1.92 -7.97,4.07 -11.77,6.44 c -0.62,0.47 -1.21,0.97 -1.77,1.5 c -1.91,-1.14 -3.27,0.69 -5.18,0.5 c 0.55,-0.54 1.11,-1.08 1.67,-1.62 c 1.98,-0.1 3.79,-1.64 5.67,-2.35 c 1.24,-3.03 3.06,-0.53 4.74,-3.28 c 1.23,-0.73 2.46,-1.43 3.71,-2.1 c 1.18,-0.2 2.36,-0.45 3.53,-0.75 c 2.07,-1.32 4.19,-2.48 6.39,-3.48 c 2.4,-0.84 4.8,-1.71 7.19,-2.61 c 0.39,-0.33 0.7,-0.73 0.94,-1.18 c 1.36,-0.37 2.74,-0.58 4.16,-0.66 c 0.58,-0.41 1.14,-0.84 1.68,-1.3 c 1.39,-0.19 2.78,-0.44 4.15,-0.77 c 0.74,-0.33 1.38,-0.8 1.93,-1.4 c 2.11,0.28 4.17,0.07 6.19,-0.62 c 2.29,-3.53 2.33,-0.27 5.42,-1.84 c 0.82,0 1.64,0.02 2.46,0.07 c 1.04,-0.55 1.99,-1.21 2.87,-2 c 2.64,1.12 5.4,0.53 8.06,-0.2 Z M 1226.14,1222.96 c 0.44,0.12 0.87,0.24 1.3,0.36 c -0.35,1.68 -1.15,3.1 -2.39,4.26 c -0.17,0.57 -0.27,1.15 -0.28,1.75 c -0.71,0.49 -1.21,1.12 -1.52,1.9 c 0.06,-1.17 -0.17,-2.28 -0.68,-3.34 c 0.42,0.02 0.75,-0.14 1.02,-0.48 c 0.77,-2.81 0.49,-2.56 2.55,-4.45 Z"/></g>
<g><path fill="#ffffff" fill-opacity="0.212" d="M 641,936.8 c -0.25,0.78 -0.53,1.55 -0.84,2.3 c -1.74,2.05 -5.35,-0.23 -7.21,2.59 c -1.77,0.08 -3.52,0.3 -5.26,0.65 c -2.51,1.23 -5.17,1.9 -8,2 c -1.48,0.85 -3.07,1.4 -4.76,1.64 c -5.49,1.78 -11.88,2.26 -17.45,3.88 c -7.19,0.38 -13.75,2.8 -21.09,2.59 c -3.06,0.08 -6.09,0.5 -9.07,1.26 c -1.76,0.1 -3.53,0.16 -5.29,0.2 c 0.45,-2.15 6.65,-2.24 8.26,-2.26 c 0.38,-0.2 0.63,-0.5 0.75,-0.9 c 1.87,0 3.74,0.04 5.6,0.1 c 0.94,-0.29 1.63,-0.9 2.06,-1.82 c 1.68,-0.59 3.28,-0.39 4.8,0.59 c 4.24,-0.29 7.76,-0.25 11.82,-1.86 c 2.81,-0.28 5.61,-0.62 8.4,-1.04 c 0.81,-0.36 1.45,-0.93 1.93,-1.71 c 0.94,0.28 1.88,0.46 2.85,0.53 c 1.96,-0.49 5.04,-0.2 6.39,-1.97 c 2.06,-0.18 4.11,-0.41 6.16,-0.7 c 2.37,-1.36 0.31,-3.03 4.43,-1.54 c 1.21,-0.42 2.44,-0.58 3.71,-0.46 c 0.78,-0.24 1.3,-0.77 1.56,-1.58 c 0.93,-0.07 1.86,-0.09 2.81,-0.07 c 0.87,-0.62 1.83,-1.06 2.86,-1.33 c 0.19,-0.46 0.5,-0.79 0.96,-0.99 c 1.25,0.56 2.46,0.53 3.62,-0.1 Z M 43.83,1175.86 c -0.14,0.93 0.17,1.63 0.93,2.07 c 0.72,3.1 0.2,8.6 3.4,13.07 c -0.17,0.8 -0.37,1.59 -0.6,2.37 c -1.48,-0.68 -1.84,-2.98 -3.21,-3.25 c -0.52,-1.34 -0.14,-3.42 -0.85,-4.67 c -0.59,-0.24 -1.15,-0.54 -1.67,-0.9 c -0.2,-1.74 -0.03,-3.45 0.53,-5.13 c 1.41,-0.77 1.9,-1.96 1.47,-3.56 Z M 655.68,1297.9 c 0.13,0.81 0.15,1.62 0.05,2.44 c -0.76,1.37 -1.13,2.48 0.9,2.93 c -5.3,9.72 6.86,23.87 17.23,22.46 c 0.83,0.95 1.85,1.56 3.07,1.84 c 2.02,0.04 4.04,0.07 6.06,0.11 c 4.32,-0.09 8.58,0.31 12.79,1.19 c 6.07,0.85 12.18,1.18 18.32,0.99 c 3.32,-0.1 6.63,0.02 9.94,0.35 c 6.14,0.56 12.29,0.95 18.46,1.16 c 8.56,0.37 17.11,0.52 25.67,0.44 c 3.62,-0.06 7.24,0.01 10.85,0.22 c 9.47,0.74 18.96,1.29 28.48,1.64 c 6.53,0.22 13.06,0.29 19.58,0.22 c 3.99,-0.11 7.98,-0.03 11.96,0.25 c 9.29,0.53 18.6,1.02 27.9,1.48 c -2.57,1.48 -5.63,0.27 -8.44,0.64 c -0.72,0.06 -1.33,0.34 -1.82,0.86 c -2.44,0.39 -4.83,0.21 -7.18,-0.54 c -4.34,-0.11 -8.67,-0.25 -13,-0.41 c -1.34,0.32 -2.66,0.71 -3.96,1.17 c -5.06,-0.05 -10.11,-0.04 -15.16,0.02 c -2.23,-0.19 -0.57,-1.94 -2.71,-2.17 c -6.74,0.04 -13.48,0.09 -20.21,0.15 c -2.33,-0.23 -4.65,-0.54 -6.96,-0.94 c -5.34,-0.24 -10.67,-0.27 -16,-0.11 c -1.34,0.38 -2.69,0.75 -4.03,1.1 c -2.09,-0.11 -0.92,-1.77 -2.85,-1.97 c -11.02,-0.33 -22.04,-0.38 -33.07,-0.13 c -1.36,-0.27 -2.71,-0.57 -4.05,-0.92 c -4.64,-0.22 -9.28,-0.22 -13.92,-0.01 c -2.94,-0.87 -5.97,-1.27 -9.08,-1.19 c -0.99,0.21 -1.99,0.38 -2.99,0.5 c -1.39,-0.36 -2.81,-0.52 -4.24,-0.48 c -0.57,-0.3 -1.16,-0.56 -1.77,-0.78 c -3.23,-0.15 -6.47,-0.19 -9.7,-0.13 c -1.38,-0.54 -2.82,-0.87 -4.3,-0.97 c -1.37,0.36 -2.74,0.7 -4.12,1.03 c -0.83,-0.83 -1.79,-1.48 -2.87,-1.94 c -2.02,0.04 -4,-0.23 -5.92,-0.79 c -0.49,-0.52 -1.03,-0.96 -1.62,-1.34 c -2.25,-0.55 -4.38,-1.34 -6.4,-2.37 c -0.45,-0.27 -0.7,-0.67 -0.77,-1.19 c -0.63,-0.38 -1.23,-0.78 -1.8,-1.22 c -0.02,-2.69 -2.62,-3.23 -3.87,-5.19 c -0.4,-2.56 -0.53,-5.17 -0.38,-7.8 c -0.08,-2.02 0.15,-4 0.68,-5.95 c -0.06,-0.9 -0.08,-1.81 -0.06,-2.7 c 0.89,-0.37 1.33,-1.02 1.31,-1.95 Z"/></g>
<g><path fill="#ffffff" fill-opacity="0.306" d="M 642.67,1057.72 c 0.41,0.62 0.9,1.15 1.48,1.61 c -0.51,2.2 -1.27,2.29 -3.06,3.26 c -1.55,2.27 -0.88,3.99 -3.97,5.02 c -1.47,1.88 -0.55,2.76 -2.93,4.01 c -0.36,0.44 -0.66,0.91 -0.9,1.42 c -1,0.17 -1.99,0.42 -2.97,0.74 c 4.13,-5.35 8.24,-10.7 12.35,-16.06 Z M 1833.09,1061.07 c 0.27,2.09 -0.8,1.75 -2.41,2.11 c -1,2.19 -0.9,1.58 -3.08,2.01 c -1.09,2.06 -0.79,1.56 -3.06,1.98 c -0.31,0.64 -0.72,1.18 -1.22,1.65 c -0.46,0.01 -0.92,0.04 -1.37,0.1 c 0.02,-0.77 -0.09,-1.52 -0.31,-2.25 c 2.41,-0.91 9.18,-6.65 11.45,-5.6 Z M 1331.14,1124.21 c -1.59,1.17 -3.17,2.3 -4.76,3.39 c -1.63,0.27 -3.15,0.86 -4.55,1.77 c -0.72,0.96 -1.61,1.72 -2.68,2.28 c -1.56,0.24 -3.01,0.8 -4.34,1.67 c -1.15,1.78 -2.92,2.64 -4.95,3.02 c -0.45,0.57 -0.94,1.1 -1.47,1.58 c -1.17,0.19 -2.25,0.64 -3.22,1.34 c -0.29,-0.89 -0.12,-1.69 0.51,-2.41 c 6.43,-4.42 13.33,-8.29 20.3,-11.84 c 0.02,0.33 0.18,0.56 0.47,0.7 c 2,-0.63 2.26,-1.85 4.69,-1.5 Z M 597.95,1125.91 c 0.7,0.16 1.41,0.3 2.12,0.44 c -1.95,3.24 -3.81,6.53 -5.61,9.87 c -0.36,0.95 -0.63,1.93 -0.83,2.92 c -1.28,0.56 -2.01,3.04 -3.07,4.1 c -1.08,1.55 -1.89,3.23 -2.43,5.03 c -0.59,-0.43 -1.08,-0.95 -1.46,-1.57 c 3.64,-6.98 7.4,-13.91 11.28,-20.79 Z M 55.85,1149.94 c -0.4,1.26 -0.14,2.36 0.79,3.28 c -1.37,2.65 -2.71,5.32 -4.02,8 c -0.97,0.06 -1.93,0.24 -2.86,0.52 c 0.18,-0.64 0.38,-1.28 0.6,-1.92 c 1.87,-0.99 1.74,-3.07 2.24,-4.76 c 1.33,-0.75 1.93,-1.89 1.79,-3.44 c 0.55,-0.5 1.04,-1.06 1.46,-1.68 Z M 575.25,1172.92 c 0.42,0.42 0.53,0.9 0.33,1.44 c -0.65,0.98 -1.22,2 -1.73,3.08 c -0.53,0.5 -1.05,1.03 -1.54,1.58 c -0.34,1.75 -0.97,3.39 -1.89,4.9 c -0.44,0.19 -0.82,0.46 -1.13,0.81 c -0.32,2.09 -1.31,3.79 -2.96,5.1 c -0.4,2.04 -0.41,1.75 -2.02,2.98 c -0.48,2.02 -0.19,1.81 -2.19,2.81 c -0.55,0.77 -1.16,1.49 -1.83,2.16 c -0.21,0.78 -0.47,1.54 -0.76,2.28 c -1.14,1.19 -2.31,2.34 -3.51,3.46 c -0.77,0.24 -1.55,0.46 -2.34,0.66 c -1.21,1.64 -2.98,1.26 -3.5,3.46 c -1.28,0.68 -2.61,1.24 -3.98,1.7 c -1.72,-0.01 -3.35,0.36 -4.9,1.1 c -1.07,-0.47 -2.2,-0.66 -3.37,-0.59 c 0.48,-1.03 2.23,-0.45 2.11,-1.64 c 1.08,0.44 1.99,0.2 2.72,-0.71 c 3.93,-0.01 4.31,-1.19 7.3,-2.63 c 1.11,-0.17 2.05,-0.67 2.82,-1.49 c 1.37,-1.66 6.1,-5 6.22,-7.07 c 5.57,-6.15 9.04,-13.68 12.94,-20.86 c 0.25,-0.34 0.57,-0.57 0.98,-0.68 c 0.86,-0.48 1.6,-1.09 2.23,-1.85 Z M 1243.87,1195.93 c 0.33,0.56 0.74,1.03 1.26,1.42 c -0.05,1.82 -0.79,1.29 -1.87,2.4 c -0.47,2.05 -0.27,1.84 -2.16,2.86 c -1.34,1.56 -2.22,3.36 -2.63,5.38 c -0.62,0.75 -1.37,1.33 -2.25,1.75 c -2.83,4.59 -5.75,9.12 -8.78,13.58 c -0.43,-0.12 -0.86,-0.24 -1.3,-0.36 c 0.16,-2.2 3.4,-5.91 4.47,-7.99 c 4.26,-6.47 8.68,-12.81 13.26,-19.04 Z M 1215.13,1243.31 c -0.89,1.97 -1.77,3.94 -2.64,5.93 c -2.03,1.77 -1.59,3.04 -2.5,5.21 c -0.9,1.1 -1.76,2.22 -2.6,3.35 c -0.46,1.25 -0.96,2.49 -1.47,3.72 c -1.58,1.63 -2.78,3.51 -3.61,5.64 c -0.83,-1.15 -0.92,-2.35 -0.28,-3.61 c 3.04,-5.57 6.19,-11.09 9.45,-16.56 c 0.95,-0.61 2.36,-4.64 3.65,-3.68 Z"/></g>
<g><path fill="#ffffff" fill-opacity="0.749" d="M 806.85,806.88 c 0.02,1.14 -0.14,2.25 -0.5,3.33 c -0.98,0.96 -1.76,2.07 -2.33,3.33 c -0.48,0.45 -1.06,0.65 -1.72,0.6 c -0.48,-1.62 0.8,-1.76 1.57,-2.78 c 0.45,-1.85 1.44,-3.34 2.98,-4.48 Z M 711.89,911.79 c 0.35,0.01 0.59,0.15 0.73,0.44 c -1.8,1.07 -3.59,2.17 -5.36,3.3 c -0.81,0.29 -1.63,0.58 -2.43,0.88 c -0.75,0.84 -1.68,1.27 -2.79,1.29 c -0.08,-0.34 0.02,-0.63 0.27,-0.88 c 1.6,-1.06 3.17,-2.14 4.71,-3.25 c 1.57,-0.78 3.19,-1.37 4.87,-1.78 Z M 675.02,929.02 c 0.72,-0.19 1.4,-0.11 2.04,0.25 c -0.01,0.6 -0.29,0.99 -0.85,1.17 c -2.2,0.01 -4.2,0.64 -6,1.89 c -2.05,0.16 -4.01,0.66 -5.89,1.48 c -0.71,0.06 -1.23,-0.23 -1.57,-0.87 c 0.24,-0.28 0.53,-0.48 0.88,-0.61 c 3.85,-0.92 7.65,-2.03 11.39,-3.31 Z M 494.11,958.22 c -0.4,0.51 -0.93,0.76 -1.59,0.75 c -4.77,0.22 -9.5,0.73 -14.2,1.55 c -18.45,-0.03 -36.9,0.01 -55.36,0.12 c 0.86,-0.75 3.06,-0.33 2.99,-1.84 c 22.75,0.6 45.43,-0.56 68.16,-0.58 Z M 990.96,970.24 c -13.04,-0.73 -26.08,-1.29 -39.13,-1.68 c 0.44,-0.51 0.99,-0.78 1.67,-0.81 c 2.35,0.26 4.68,0.12 6.98,-0.42 c 3.34,0.57 6.68,0.59 10.02,0.07 c 4.28,0.56 8.58,0.67 12.9,0.34 c 2.32,0.62 4.69,1.03 7.09,1.22 c 0.45,0.32 0.61,0.74 0.47,1.28 Z M 1392.93,971.03 c -0.38,2.24 -3.05,5.89 -5.06,6.77 c 0.21,-1.42 0.79,-2.69 1.74,-3.79 c 0.79,-0.66 2.24,-3.15 3.32,-2.98 Z M 157.92,1013.73 c 0.54,0.31 0.64,0.73 0.3,1.26 c -1.72,1.12 -4.22,4.64 -6.17,4.88 c -0.01,-0.66 0.18,-1.26 0.58,-1.79 c 1.84,-1.37 3.6,-2.82 5.29,-4.35 Z M 1775.02,1086.76 c -1.91,0.61 -3.82,1.24 -5.72,1.88 c -2.44,0.44 -4.89,0.81 -7.33,1.12 c 0.31,-1.82 3.8,-1.59 5.14,-2 c 1.53,-0.84 6.84,-2.72 7.91,-1 Z M 83.86,1103.92 c 0.17,1.87 -2.74,5.96 -3.88,7.53 c -0.27,0.23 -0.58,0.37 -0.93,0.41 c -0.57,-2.02 2.89,-7.22 4.81,-7.94 Z M 1283.12,1153.24 c -0.58,1.54 -1.61,2.66 -3.1,3.38 c -2.35,2.25 -4.69,4.52 -7,6.82 c -1.23,0.99 -2.5,1.86 -3.83,2.63 c -0.06,-0.73 0.17,-1.36 0.7,-1.88 c 1.88,-1.74 3.67,-3.56 5.36,-5.48 c 2.21,-1.33 4.16,-2.95 5.88,-4.89 c 0.6,-0.42 1.26,-0.62 1.99,-0.58 Z M 720.06,1191.76 c 0.73,0.64 0.78,1.35 0.15,2.12 c -3.7,4.99 -7.34,10.01 -10.93,15.06 c -0.32,0.44 -0.74,0.7 -1.28,0.79 c 0.16,-1.29 0.52,-2.53 1.09,-3.73 c 1.28,-0.41 4.68,-5.6 5.13,-7.01 c 0.42,-0.32 0.83,-0.66 1.22,-1.02 c 1.45,-2.15 2.99,-4.22 4.62,-6.21 Z M 682.99,1327.68 c -2.02,-0.04 -4.04,-0.07 -6.06,-0.11 c -1.22,-0.28 -2.24,-0.89 -3.07,-1.84 c 0.7,-0.81 4.21,0.06 5.39,-0.33 c 0.91,0.43 3.45,1.19 3.74,2.28 Z"/></g>
<g><path fill="#ffffff" fill-opacity="0.827" d="M 359.96,956.07 c 6.73,-0.04 14.66,-0.01 21.19,1.49 c 0.04,0.56 -0.2,0.92 -0.73,1.09 c -2.98,-0.03 -5.95,-0.14 -8.92,-0.31 c -3.06,0.43 -5.16,0.78 -8.04,-0.51 c -1.4,-0.33 -3.76,0.51 -3.5,-1.76 Z M 1598.59,1096.5 c -3.23,0.15 -20.78,-1.39 -26.09,-1.24 c -9.36,0.21 -18.66,-0.81 -27.95,0.01 c -0.72,-0.05 -1.24,-0.4 -1.56,-1.02 c 1.5,-0.49 3.05,-0.73 4.63,-0.73 c -0.94,-0.03 -1.75,-0.36 -2.43,-0.98 c 0.78,0.01 1.56,0.12 2.33,0.32 c 4.22,-0.71 8.44,-0.74 12.67,-0.09 c 0.62,0.57 1.35,0.89 2.17,0.98 c 8.69,-0.02 17.36,0.14 26.01,0.49 c 3.35,0.28 6.7,0.58 10.06,0.91 c 0.36,0.4 0.41,0.85 0.16,1.35 Z M 768.17,1331.81 c -8.56,0.08 -17.11,-0.07 -25.67,-0.44 c -6.17,-0.21 -12.32,-0.6 -18.46,-1.16 c 0,-0.92 0.47,-1.3 1.4,-1.14 c 7.68,0.37 15.37,0.59 23.06,0.66 c 4.26,-0.39 8.53,-0.51 12.81,-0.38 c 1.8,1.03 3.76,1.45 5.87,1.26 c 0.62,0.16 0.95,0.56 0.99,1.2 Z M 909.97,1336.14 c -14.34,0.01 -28.69,-0.16 -43.03,-0.52 c -9.3,-0.46 -18.61,-0.95 -27.9,-1.48 c 0.03,-0.88 0.5,-1.29 1.4,-1.23 c 10.02,0.21 20.04,0.5 30.06,0.89 c 5.6,-0.86 11.33,-0.32 16.99,-0.51 c 0.9,0.59 1.85,1.08 2.87,1.45 c 4.37,-0.4 8.76,-0.55 13.16,-0.44 c 1.95,0.49 3.93,0.73 5.95,0.71 c 0.46,0.25 0.62,0.63 0.5,1.13 Z"/></g>
<g><path fill="#ffffff" fill-opacity="0.129" d="M 1173.97,1077.82 c -1.02,2.83 -4.8,-0.29 -4.94,3.2 c -2.03,0.08 -4.07,0.13 -6.1,0.16 c -3.28,0.11 -6.54,0.46 -9.78,1.03 c -6.69,0.55 -13.39,0.87 -20.11,0.96 c -1.16,-0.28 -2.35,-0.36 -3.54,-0.24 c -5.51,0.77 -11.05,1.18 -16.62,1.25 c -5.61,0.18 -11.22,0.38 -16.83,0.58 c -27.07,0.96 -54.14,0.95 -81.21,-0.02 c -0.38,-1.09 -3.38,-1.25 -4.38,-1.67 c -3.19,-0.18 -6.36,-0.41 -9.52,-0.7 c 2.52,0.08 5.04,0.23 7.56,0.44 c 1.01,-0.17 2.01,-0.4 3,-0.69 c 3.99,-0.09 7.98,-0.16 11.98,-0.21 c 1.18,0.01 2.3,0.27 3.36,0.78 c 1.55,-0.04 3.1,-0.05 4.65,-0.03 c 1.33,0.39 2.67,0.76 4.02,1.1 c 3.66,-0.03 7.32,-0.02 10.99,0.05 c 1.05,-0.2 2.05,-0.56 3,-1.07 c 1.32,0.36 2.65,0.69 4,0.97 c 3.31,-2.03 3.71,-0.63 7.01,0.1 c 4.66,-0.07 9.32,-0.08 13.99,-0.05 c 1.03,-0.18 2.02,-0.51 2.97,-0.98 c 1.68,-0.05 3.36,-0.08 5.04,-0.09 c 1.3,-0.35 2.61,-0.59 3.94,-0.74 c 4.37,0.02 8.73,0.04 13.1,0.05 c 1.65,0.27 3.3,0.52 4.95,0.75 c 5.67,-0.35 11.34,-0.64 17.02,-0.86 c 0.66,-0.11 1.3,-0.31 1.91,-0.58 c 1.05,0.06 2.09,0.17 3.13,0.33 c 1.23,-3.03 5.54,-1.13 7.94,-1.21 c 1,-0.21 2.01,-0.36 3.03,-0.45 c 1.97,0.34 3.97,0.57 5.97,0.68 c 4.33,-0.14 8.65,-0.35 12.98,-0.63 c 0.67,-0.38 1.35,-0.77 2.02,-1.15 c 0.66,0.15 1.33,0.21 2,0.19 c 3.06,-0.42 6.12,-0.81 9.18,-1.17 c 1.45,0.83 2.88,0.8 4.29,-0.08 Z"/></g>
<g><path fill="#ffffff" fill-opacity="0.325" d="M 700.01,918.05 c -3.14,2.99 -21.47,9.54 -22.95,11.22 c -0.64,-0.36 -1.32,-0.44 -2.04,-0.25 c -0.03,-0.6 -0.03,-1.21 -0.02,-1.81 c 0.86,-0.38 1.74,-0.66 2.66,-0.85 c 0.17,-0.53 0.45,-1 0.83,-1.4 c 2.25,0.25 3.53,-0.23 5.14,-1.62 c 2.4,-0.22 3.24,-0.5 4.91,-2.09 c 2.66,0.09 2.53,-0.4 4.04,-2 c 1.14,0.23 2.21,0.07 3.21,-0.49 c 1.44,-0.07 2.84,-0.31 4.22,-0.71 Z M 1936.84,930.96 c 0.37,0.98 0.4,1.97 0.1,2.96 c 0.22,1.42 -0.27,2.49 -1.47,3.23 c -0.94,2.96 -1.18,6.07 -4.03,7.95 c -0.47,1.69 -1.14,3.3 -2.01,4.82 c -0.84,0.22 -1.5,0.68 -2,1.38 c -0.21,-0.81 -0.41,-1.63 -0.61,-2.44 c 3.42,-5.58 6.51,-11.36 9.28,-17.33 c 0.16,-0.31 0.41,-0.5 0.74,-0.57 Z M 1202.89,944.95 c 0.34,1.03 1.02,1.37 2.04,1.03 c 0.12,1.2 -1.14,0.82 -1.74,1.66 c -1.47,0.42 -2.84,1.07 -4.1,1.97 c -1.63,0.89 -3.37,1.48 -5.23,1.79 c -0.49,0.46 -0.98,0.89 -1.49,1.31 c -2.54,-0.04 -3.18,0.66 -4.95,2.05 c -0.78,-0.07 -1.52,0.08 -2.2,0.46 c -1.53,0.22 -2.99,0.01 -4.39,-0.65 c 7.62,-2.55 14.67,-6.21 22.06,-9.62 Z M 129.01,1042.23 c -0.04,1.52 -0.76,2.57 -2.17,3.14 c -2.7,3.16 -5.41,6.33 -8.1,9.49 c -2.5,1.34 -3.3,3.29 -4.88,5.46 c -0.55,0.47 -1.1,0.93 -1.65,1.4 c -0.95,1.65 -2.12,3.15 -3.5,4.48 c -0.53,0.76 -0.77,1.6 -0.73,2.52 c -1.36,1.2 -2.4,2.61 -3.14,4.24 c -1.68,0.48 -2.67,1.6 -2.97,3.37 c -0.54,0.48 -1.11,0.93 -1.71,1.34 c -0.6,0.89 -0.76,2.59 -2.27,2.13 c 0.29,-1.07 0.32,-2.16 0.1,-3.27 c 0.19,-0.18 0.37,-0.36 0.55,-0.54 c 3.62,-0.01 1.99,-0.23 2.95,-3 c 0.48,-0.15 0.88,-0.43 1.2,-0.82 c 0.51,-3.6 2.29,-2.63 4.07,-4.91 c 0.16,-0.78 0.42,-1.53 0.76,-2.23 c 2.02,-0.5 1.24,-1.54 1.92,-3.07 c 1.47,-0.82 2.74,-1.88 3.82,-3.2 c 0.54,-0.59 0.83,-1.3 0.89,-2.11 c 1.25,-0.7 2.29,-1.67 3.09,-2.9 c 1.94,-1.65 0.93,-3.57 3.67,-4.34 c 1.73,-1.85 3.38,-3.77 4.96,-5.75 c 0.49,0.1 0.98,0.12 1.47,0.07 c 0.48,-0.6 1.04,-1.1 1.67,-1.5 Z M 1821.64,1066.67 c 0.22,0.73 0.33,1.48 0.31,2.25 c -0.01,0.2 -0.02,0.41 -0.02,0.61 c -1.02,0.14 -1.86,0.6 -2.52,1.39 c -2.66,0.19 -2.15,0.89 -3.89,2.11 c -1.88,0.33 -3.63,1.02 -5.24,2.09 c -0.74,-0.23 -1.21,-0.71 -1.42,-1.45 c 4.31,-2.25 8.57,-4.59 12.78,-7 Z M 614.08,1101.21 c -0.02,0.77 -0.13,1.52 -0.32,2.27 c -0.74,0.66 -1.17,1.5 -1.29,2.49 c -0.74,0.96 -1.43,1.96 -2.05,3.01 c -1.53,0.62 -5.22,7.59 -6.17,9.35 c -0.59,-0.18 -1.18,-0.35 -1.77,-0.53 c 3.2,-5.4 6.37,-10.82 9.52,-16.26 c 0.59,-0.67 1.28,-0.78 2.08,-0.33 Z M 58.69,1143.79 c 0.45,0.67 1.06,1.14 1.83,1.4 c -0.77,1.73 -1.71,3.36 -2.8,4.9 c -0.35,1.04 -0.71,2.09 -1.08,3.13 c -0.93,-0.92 -1.19,-2.02 -0.79,-3.28 c 1.13,-1.98 2.07,-4.03 2.84,-6.15 Z M 1222.57,1227.89 c 0.51,1.06 0.74,2.17 0.68,3.34 c -1.06,2.15 -1.96,4.11 -4.06,5.37 c 0.17,2.99 -1.52,3.4 -2.84,5.61 c -2.06,-3.82 4.66,-10.65 6.22,-14.32 Z"/></g>
<g><path fill="#ffffff" fill-opacity="0.247" d="M 1948.01,854.82 c 1.56,0.84 3.21,1.43 4.95,1.75 c 0.84,0.78 1.65,1.6 2.44,2.44 c 0.31,1.59 0.67,3.16 1.07,4.73 c 2.22,1.25 1.07,2.74 0.78,4.77 c 0.41,1.34 0.59,2.71 0.54,4.1 c -0.39,0.57 -0.88,1.05 -1.46,1.44 c -0.06,1.17 -0.3,2.3 -0.72,3.4 c -0.02,0.95 0,1.89 0.06,2.84 c -0.73,0.44 -1.21,1.06 -1.46,1.86 c -0.04,1.48 -0.27,2.92 -0.7,4.33 c 0.19,0.6 0.24,1.2 0.15,1.81 c -1.72,1.26 -1.48,2.35 -1.44,4.23 c -0.72,2.29 -1.37,4.6 -1.94,6.93 c -0.69,-0.39 -1.25,-0.93 -1.67,-1.6 c 0.32,-2.62 1.01,-5.13 2.08,-7.53 c 0.42,-10.57 11.22,-25.41 -1.78,-32.83 c -0.91,-0.58 -1.88,-1.01 -2.93,-1.29 c 0.79,-0.1 2.33,-0.15 2.03,-1.38 Z M 1456.87,863.91 c -0.12,0.52 -0.36,0.99 -0.72,1.39 c -1.13,-0.54 -2.16,-0.43 -3.1,0.34 c -0.15,0.78 -0.41,1.5 -0.8,2.18 c -1.91,1.51 -3.17,2.42 -3.22,5.04 c -1.05,0.84 -5.89,9.98 -5.94,11.14 c -1.82,-0.15 -1.33,3.64 -3.25,2.61 c 0.37,-1.25 0.94,-2.41 1.71,-3.46 c 0.19,-0.85 0.41,-1.7 0.66,-2.53 c 1.64,-1.77 2.52,-3.85 2.63,-6.26 c 1.17,-0.85 2.25,-1.81 3.23,-2.88 c 0.09,-0.87 0.21,-1.72 0.35,-2.57 c 2.01,-1.07 3.49,-2.66 4.42,-4.74 c 1.3,-0.55 2.64,-0.64 4.03,-0.26 Z M 1316.06,1039.35 c -1.26,1.09 -2.26,2.36 -3.02,3.81 c -6.95,3.54 -13.59,7.17 -20.95,10.05 c -1.1,-0.19 -2.19,-0.39 -3.29,-0.62 c 2.21,-1.3 4.54,-2.35 6.98,-3.13 c 0.41,-0.33 0.76,-0.7 1.06,-1.12 c 0.75,-0.22 1.44,-0.56 2.06,-1.03 c 1.33,-0.58 3.26,-0.27 3.9,-1.92 c 0.85,-0.22 1.72,-0.38 2.61,-0.47 c 0.94,-0.38 1.86,-0.81 2.75,-1.31 c 0.71,-0.99 1.57,-1.83 2.6,-2.5 c 1.47,0.32 2.55,-0.2 3.24,-1.53 c 0.66,-0.22 1.35,-0.3 2.06,-0.23 Z M 1227.99,1069.75 c 0.26,0.88 0.86,1.27 1.79,1.18 c 0,1.71 -4.12,1.69 -5.25,1.54 c -4.47,1.85 -9.14,2.81 -14,2.86 c -1.26,0.98 -2.7,1.4 -4.3,1.27 c -0.9,-0.71 -1.29,-1.64 -1.17,-2.77 c 1.22,1.49 3.95,-0.44 5.75,0.04 c 3.49,-1.03 2.46,-3.15 6.73,-1.57 c 2.41,-0.99 4.23,0.08 6.27,-2.05 c 1.47,0.49 2.87,0.33 4.18,-0.5 Z"/></g>
<g><path fill="#ffffff" fill-opacity="0.816" d="M 284.19,953.12 c 0.36,0.25 0.76,0.39 1.21,0.4 c 11.38,-1.01 22.76,-1.03 34.15,-0.04 c 0.8,0.11 1.56,-0.04 2.25,-0.44 c 0.17,0.36 0.45,0.55 0.86,0.57 c 6.86,0.1 13.72,0.4 20.56,0.9 c -0.79,0.53 -0.97,1.23 -0.55,2.09 c -1.97,0.15 -3.96,0.16 -5.97,0.04 c -0.91,-0.8 -1.97,-1.26 -3.17,-1.38 c -2.32,0.63 -4.62,0.57 -6.91,-0.16 c -4.04,0.09 -8.09,0.15 -12.13,0.17 c -1.68,-0.11 -3.34,-0.33 -4.99,-0.65 c -5,-0.2 -10,-0.2 -15,-0.02 c -3.99,0.78 -8,0.93 -12.03,0.44 c -1.97,0.53 -3.96,0.72 -6,0.57 c -1.74,1.31 -1.77,1.25 -3.96,0.84 c -1.21,0.26 -6.14,1.58 -6.55,-0.39 c 5.39,-1.56 10.88,-2.32 16.49,-2.29 c 0.65,-0.02 1.23,-0.24 1.74,-0.65 Z M 395.9,958.23 c 10.02,0.05 20.03,0.24 30.05,0.57 c 0.07,1.51 -2.13,1.09 -2.99,1.84 c -7.75,-0.39 -15.51,-0.4 -23.27,-0.04 c -1.35,-0.59 -2.74,-1.01 -4.18,-1.27 c 0.15,-0.36 0.28,-0.72 0.39,-1.1 Z"/></g>
<g><path fill="#ffffff" fill-opacity="0.357" d="M 1944.49,910.78 c 1.67,2.6 -0.82,3.07 -0.22,5.57 c -0.5,1.35 -0.99,2.71 -1.46,4.08 c 0.4,2.46 -1.08,2.36 -1.81,4.37 c -0.04,0.8 -0.15,1.58 -0.33,2.35 c -0.47,0.34 -0.87,0.74 -1.21,1.21 c -0.35,1.95 -1,3.79 -1.94,5.52 c -0.2,0.01 -0.39,0.03 -0.58,0.04 c 0.3,-0.99 0.27,-1.98 -0.1,-2.96 c -0.13,-0.82 -0.04,-1.62 0.28,-2.39 c 3.38,-5.63 4.51,-11.87 7.37,-17.79 Z M 723.02,994.9 c -0.53,1.17 -1.14,2.28 -1.82,3.34 c -0.12,1.02 -1.03,0.24 -1.72,0.69 c -0.64,0.66 -1.4,1.1 -2.29,1.31 c -0.94,0.2 -2.51,0.11 -2.27,-1.28 c 1.5,-0.54 2.82,-1.35 3.96,-2.42 c 1.43,-0.4 2.81,-0.94 4.14,-1.64 Z M 602.48,1117.8 c 0.59,0.18 1.18,0.35 1.77,0.53 c -1.6,2.57 -2.99,5.25 -4.18,8.02 c -0.71,-0.14 -1.42,-0.28 -2.12,-0.44 c 1.68,-2.61 3.19,-5.31 4.53,-8.11 Z M 676.79,1257.9 c 0.26,0.48 0.33,0.99 0.22,1.53 c -6.76,13.37 -13.71,26.77 -19.58,40.54 c -0.23,1.11 -0.49,2.21 -0.8,3.3 c -2.03,-0.45 -1.66,-1.56 -0.9,-2.93 c 0.1,-0.82 0.08,-1.63 -0.05,-2.44 c 0.24,-0.66 0.51,-1.3 0.81,-1.92 c 0.48,-0.25 0.85,-0.62 1.09,-1.11 c 0.87,-1.9 0.38,-3.26 2.23,-4.55 c 1.38,-2.97 2.8,-5.92 4.26,-8.86 c 0.9,-2.08 1.86,-4.14 2.87,-6.17 c 0.1,-0.82 0.24,-1.62 0.41,-2.41 c 2.03,-1.11 4.38,-7.3 5.68,-9.46 c 0.13,-0.6 0.21,-1.21 0.24,-1.83 c 0.9,-0.67 1.49,-1.55 1.77,-2.65 c 0.58,-0.36 1.16,-0.7 1.75,-1.04 Z"/></g>
<g><path fill="#ffffff" fill-opacity="0.804" d="M 714.1,1329.86 c -6.14,0.19 -12.25,-0.14 -18.32,-0.99 c -0.06,-0.74 0.24,-1.26 0.88,-1.57 c 2.6,0.39 5.19,0.44 7.8,0.12 c 0.72,0.21 1.4,0.51 2.05,0.91 c 1.57,0.1 6.69,0.25 7.59,1.53 Z M 827.08,1333.89 c -6.52,0.07 -13.05,0 -19.58,-0.22 c -9.52,-0.35 -19.01,-0.9 -28.48,-1.64 c 0.09,-0.82 0.57,-1.19 1.43,-1.09 c 8.02,0.18 16.03,0.44 24.05,0.78 c 4,-0.31 8.01,-0.46 12.04,-0.44 c 0.89,0.58 1.82,1.08 2.81,1.5 c 2.51,-0.11 5.95,-1.39 7.73,1.11 Z"/></g>
<g><path fill="#ffffff" fill-opacity="0.706" d="M 1279.8,878.02 c 0.72,2.32 -1.62,1.54 -1.87,3.62 c -3.15,3.47 -6.16,7.07 -9.04,10.81 c -0.71,0.9 -1.64,1.43 -2.76,1.58 c 0.14,-0.67 0.4,-1.29 0.79,-1.85 c 2.89,-3.04 5.64,-6.2 8.24,-9.49 c 0.83,-1.24 2.87,-4.69 4.64,-4.67 Z M 207.84,975.81 c 0.98,0.29 1.98,0.36 3.01,0.21 c 0.04,0.39 -0.09,0.72 -0.39,0.99 c -3.6,1.93 -7.11,4 -10.53,6.21 c -1.51,1 -3.15,1.55 -4.94,1.66 c 0.27,-1.19 2.91,-1.76 1.94,-2.98 c 0.83,0.17 1.65,0.16 2.47,-0.03 c 2.09,-1.37 4.27,-2.58 6.54,-3.62 c 1.02,-0.52 1.66,-1.33 1.9,-2.44 Z M 104.84,1072.96 c -0.29,3.14 -3.9,5.51 -5.24,8.38 c -0.29,0.5 -0.72,0.71 -1.29,0.64 c -0.06,-0.74 -0.2,-1.46 -0.42,-2.18 c 1.51,0.46 1.67,-1.24 2.27,-2.13 c 0.6,-0.41 1.17,-0.86 1.71,-1.34 c 0.3,-1.77 1.29,-2.89 2.97,-3.37 Z M 1112.88,1084.18 c 0.41,0.53 0.96,0.82 1.64,0.86 c 2.18,-0.14 4.35,-0.08 6.51,0.21 c -2.18,0.12 -4.36,0.28 -6.54,0.48 c -4.16,-0.61 -8.29,-0.45 -12.39,0.49 c -1.61,-0.67 -5.79,0.83 -6.05,-1.46 c 5.61,-0.2 11.22,-0.4 16.83,-0.58 Z M 1262.02,1174.18 c -0.92,1.65 -4.15,6.2 -6.04,6.53 c -0.09,-0.95 0.16,-1.79 0.74,-2.53 c 1.76,-0.77 3.3,-4.53 5.3,-4 Z"/></g>
<g><path fill="#ffffff" fill-opacity="0.773" d="M 1406.89,950.01 c 0.55,3.45 -1.61,3.5 -2.34,6.07 c -0.9,0.79 -1.69,1.67 -2.37,2.66 c -0.39,0.22 -0.81,0.26 -1.23,0.1 c 0.4,-0.74 0.76,-1.5 1.08,-2.27 c 0.53,-0.46 1.06,-0.91 1.59,-1.36 c 0.33,-1.39 1.86,-4.76 3.27,-5.2 Z M 576.39,952.45 c 0.61,0.49 1.33,0.81 2.17,0.94 c -0.61,0.34 -1.26,0.58 -1.96,0.7 c -2.04,0.03 -4.06,0.3 -6.04,0.82 c -3.36,0.01 -6.7,0.16 -10.04,0.45 c -1.12,0.34 -2.2,0.78 -3.23,1.33 c -1.28,0.03 -2.54,-0.08 -3.79,-0.33 c -3.34,0.41 -6.69,0.63 -10.05,0.66 c -0.88,0.11 -1.34,-0.27 -1.39,-1.11 c 1.71,-0.77 2.49,-0.17 4.23,-0.28 c 4.86,-1.7 10.61,-1.56 15.74,-1.72 c 1.76,-0.04 3.53,-0.1 5.29,-0.2 c 2.98,-0.76 6.01,-1.18 9.07,-1.26 Z M 1404.98,1099.14 c -2.1,0.62 -4.22,1.21 -6.37,1.76 c -1.59,0.31 -3.17,0.29 -4.74,-0.07 c 1.67,-0.61 3.31,-1.3 4.93,-2.07 c 2.1,-0.4 4.16,-0.27 6.18,0.38 Z"/></g>
<g><path fill="#ffffff" fill-opacity="0.286" d="M 84.68,1098.08 c 0.85,0.01 1.7,0.02 2.56,0.05 c -1.03,2.01 -2.16,3.94 -3.38,5.79 c -1.92,0.72 -5.38,5.92 -4.81,7.94 c -0.57,0.48 -1.19,0.86 -1.88,1.14 c -0.17,-0.69 -0.29,-1.38 -0.35,-2.08 c 0.13,-1.47 0.7,-2.75 1.7,-3.85 c 1.95,-0.85 2.86,-2.33 2.71,-4.45 c 0.47,-0.51 1.04,-0.91 1.7,-1.21 c 0.41,-1.2 0.99,-2.31 1.75,-3.33 Z M 713.87,1196.74 c -0.06,0.78 0.06,1.53 0.35,2.25 c -0.45,1.41 -3.85,6.6 -5.13,7.01 c 0.3,-0.82 0.18,-1.58 -0.35,-2.27 c 3.95,-1.41 2.27,-6.1 5.13,-6.99 Z M 696.78,1221.77 c 0.45,0.16 0.9,0.32 1.35,0.48 c -0.75,1.55 -1.5,3.08 -2.26,4.59 c -0.97,1.9 -6.05,11.3 -7.91,11.42 c -0.42,-0.19 -0.84,-0.37 -1.26,-0.56 c 0.61,-1.69 1.2,-3.78 3.12,-4.38 c 1.58,-1.52 1.16,-2.52 1.77,-4.35 c 2.21,-1.14 3.4,-2.95 3.59,-5.43 c 0.73,-0.43 1.26,-1.01 1.6,-1.77 Z"/></g>
<g><path fill="#ffffff" fill-opacity="0.71" d="M 817.08,786.96 c 0.35,-0.05 0.69,-0.1 1.03,-0.16 c 0.43,0.04 0.62,0.28 0.56,0.71 c -1.13,1.61 -1.95,3.35 -2.46,5.24 c -1.7,1.15 -2.96,5.13 -4.2,6.82 c -0.5,0.39 -1.07,0.53 -1.69,0.42 c -0.4,-1.54 0.73,-1.65 1.43,-2.66 c 0.03,-0.57 0.14,-1.13 0.31,-1.67 c 1.16,-1.51 2.34,-2.99 3.54,-4.45 c 0.44,-1.43 0.94,-2.85 1.48,-4.25 Z M 1307.85,837.96 c 0.09,1.63 -2.33,4.8 -3.57,5.85 c -0.27,1.2 -0.97,1.94 -2.1,2.22 c 0.23,-2.14 3.08,-5.18 3.99,-7.27 c 0.47,-0.46 1.03,-0.72 1.68,-0.8 Z M 1263.94,1062.21 c 0.36,0.63 0.89,1.06 1.59,1.28 c -2.06,-0.97 -5.02,1.06 -7.09,1.4 c -1.48,0.24 -2.96,0.23 -4.43,-0.04 c 0.54,-0.8 1.33,-1.16 2.35,-1.07 c 0.45,-0.14 0.6,-0.42 0.45,-0.87 c 0.58,0.11 1.16,0.17 1.74,0.2 c 1.76,-0.59 3.55,-0.88 5.39,-0.9 Z M 705.83,1211.9 c 0.08,0.98 -0.15,1.88 -0.69,2.71 c -2.45,3.61 -4.75,7.31 -6.91,11.1 c -0.67,0.61 -1.45,0.99 -2.36,1.13 c 0.76,-1.51 1.51,-3.04 2.26,-4.59 c 2.46,-3.15 4.74,-6.42 6.86,-9.83 c 0.23,-0.25 0.51,-0.42 0.84,-0.52 Z"/></g>
<g><path fill="#ffffff" fill-opacity="0.698" d="M 756.91,874.83 c 2.52,0.63 -0.56,1.99 -1.15,2.44 c -3.87,3.79 -7.73,7.59 -11.58,11.4 c -4.08,3.25 -8.14,6.52 -12.19,9.83 c -0.63,0.32 -1.29,0.4 -1.98,0.21 c 0.01,-0.56 0.21,-1.04 0.6,-1.45 c 1.84,-0.78 3.37,-1.98 4.58,-3.6 c 1.49,-1.01 3.29,-1.47 3.81,-3.42 c 1.57,-0.74 1.96,-1.44 3.04,-2.65 c 1.57,-0.68 2.99,-1.6 4.25,-2.76 c 3.44,-3.43 6.98,-6.76 10.62,-10 Z M 51.88,1163 c 0.16,2.64 -0.72,3.48 -1.98,5.47 c -0.41,2.14 -1.32,4.03 -2.72,5.67 c -0.4,-1.15 -0.36,-2.28 0.13,-3.4 c 0.88,-1.71 1.86,-3.37 2.93,-4.97 c 0.59,-0.79 0.26,-2.93 1.64,-2.77 Z"/></g>
<g><path fill="#ffffff" fill-opacity="0.388" d="M 1126.09,968.13 c 0.06,0.37 0.13,0.75 0.19,1.12 c -3.24,0.84 -6.54,1.25 -9.88,1.22 c -0.79,0.08 -1.52,0.32 -2.21,0.7 c -1.74,-1.55 -4.5,-0.57 -6.59,-0.53 c -0.47,-0.07 -0.7,-0.34 -0.68,-0.82 c 6.13,-1.61 12.86,-1.71 19.17,-1.69 Z M 579.65,1163.99 c 0.32,2.44 -1.03,2.44 -2.13,4.23 c -0.78,1.56 -1.54,3.13 -2.27,4.7 c -0.63,0.76 -1.37,1.37 -2.23,1.85 c -0.84,-2.11 3.56,-7.5 4.14,-9.74 c 0.98,0.02 1.81,-0.33 2.49,-1.04 Z"/></g>
<g><path fill="#ffffff" fill-opacity="0.373" d="M 694.9,1010.68 c 0.54,1.74 -1.43,2.15 -1.86,3.66 c -0.69,-0.08 -1.08,0.24 -1.18,0.98 c -0.62,0.38 -1.25,0.76 -1.89,1.13 c -0.9,1.58 -2.24,2.4 -4.03,2.45 c 0.99,-0.77 1.6,-1.76 1.83,-2.96 c 0.7,-1.85 5.24,-4.44 7.13,-5.26 Z M 586.67,1146.7 c 0.38,0.62 0.87,1.14 1.46,1.57 c -0.28,2.54 -2.99,1.72 -2.34,5.14 c -0.53,0.47 -1.13,0.87 -1.79,1.19 c -0.28,1.11 -0.46,2.23 -0.53,3.37 c -1.26,1.47 -3.8,3.95 -3.82,6.02 c -0.68,0.71 -1.51,1.06 -2.49,1.04 c 0.08,-0.4 0.18,-0.79 0.29,-1.18 c 1.14,-1.81 2.25,-3.65 3.34,-5.5 c 0.69,-1.82 0.36,-2.74 1.97,-4.1 c 1.41,-2.46 2.71,-4.97 3.91,-7.55 Z"/></g>
<g><path fill="#ffffff" fill-opacity="0.525" d="M 1338.24,731.03 c 1.14,-0.29 2.23,-0.11 3.25,0.55 c 0.89,0.43 1.54,1.08 1.96,1.98 c 1.28,1.26 1.73,2.74 1.35,4.46 c -0.89,-1.17 -1.79,-2.38 -2.7,-3.61 c -1.23,-1.26 -2.52,-2.38 -3.86,-3.38 Z M 1349.8,1114.92 c -0.17,1.99 -4.57,0.67 -3.73,3.37 c -2.49,-0.47 -4.1,-0.53 -5.89,1.36 c -2.3,1.07 -4.36,1.88 -6.15,3.74 c -1.02,0.12 -1.98,0.39 -2.89,0.82 c -2.43,-0.35 -2.69,0.87 -4.69,1.5 c -0.29,-0.14 -0.45,-0.37 -0.47,-0.7 c 1.29,-2.02 2.34,-1.24 4.25,-2.25 c 1.57,-1.75 2.19,-1.19 4.29,-1.81 c 2.07,-1.22 4.14,-2.41 6.23,-3.58 c 0.89,-0.15 1.76,-0.34 2.63,-0.56 c 1.98,-1.18 3.99,-2.35 6.42,-1.89 Z"/></g>
<g><path fill="#ffffff" fill-opacity="0.714" d="M 834.73,1095.91 c -0.1,2.08 -1.86,1.14 -3.21,2.06 c -3.72,1.92 -7.42,3.89 -11.08,5.89 c -0.88,0.31 -1.73,0.26 -2.56,-0.14 c 3.8,-2.37 7.73,-4.52 11.77,-6.44 c 1.73,-0.17 3.4,-1.73 5.08,-1.37 Z M 1305.68,1136.85 c -0.63,0.72 -0.8,1.52 -0.51,2.41 c -2.07,-2.08 -5.01,3.71 -7.99,2.73 c 0.64,-0.8 1.31,-1.55 2.04,-2.27 c 2.54,-1.01 3.33,-2.75 6.46,-2.87 Z"/></g>
<g><path fill="#ffffff" fill-opacity="0.671" d="M 676.99,1023.14 c -0.31,0.99 -0.63,1.98 -0.95,2.96 c -0.44,-0.14 -0.89,-0.13 -1.33,0.02 c -1.01,1.13 -3.96,3.84 -5.54,3.87 c 0.01,-0.37 0.15,-0.68 0.41,-0.94 c 1.85,-1.28 5.33,-5.69 7.41,-5.91 Z M 1285.84,1055.93 c -0.08,1.25 -2.3,1.05 -3.13,1.39 c -0.5,0.42 -1.01,0.82 -1.52,1.22 c -1.53,0.16 -3.06,0.39 -4.57,0.69 c -1.61,0.95 -3.35,1.54 -5.2,1.77 c -0.8,0.24 -1.26,-0.02 -1.38,-0.77 c 1.91,-0.59 3.76,-1.32 5.56,-2.18 c 2.66,-0.39 3.88,-0.25 6.08,-2.04 c 1.38,-0.25 2.77,-0.28 4.16,-0.08 Z"/></g>
<g><path fill="#ffffff" fill-opacity="0.447" d="M 1150.76,964 c 0.54,2.45 -7.43,-0.31 -7.72,3.18 c -1.45,-0.2 -2.9,-0.18 -4.36,0.06 c -4.12,0.76 -8.25,1.43 -12.4,2.01 c -0.06,-0.37 -0.13,-0.75 -0.19,-1.12 c 1.06,-0.61 2.19,-1.04 3.4,-1.28 c 3.01,-0.38 6.03,-0.63 9.06,-0.75 c 3.91,-1.59 7.98,-2.29 12.21,-2.1 Z"/></g>
<g><path fill="#ffffff" fill-opacity="0.584" d="M 1179.07,956.31 c -0.96,1.87 -4.37,-0.69 -4.06,2.89 c -0.58,-0.39 -1.17,-0.4 -1.75,-0.04 c -1.57,-1.3 -4.42,0.65 -6.28,0.61 c 0.1,-0.57 0.42,-0.98 0.96,-1.23 c 2.3,-0.5 4.51,-1.26 6.62,-2.29 c 1.51,-0.5 3.01,-0.49 4.51,0.06 Z M 95.08,1087.28 c -0.37,0.77 -0.72,1.56 -1.05,2.35 c -0.42,0.2 -0.81,0.45 -1.16,0.76 c -1.12,1.98 -2.42,3.81 -3.9,5.49 c -0.25,-1.4 -0.25,-2.81 -0.01,-4.23 c 1.93,0.26 2.56,-0.58 1.9,-2.52 c 1.51,-0.41 2.92,-1.03 4.22,-1.85 Z"/></g>
<g><path fill="#ffffff" fill-opacity="0.812" d="M 528.3,956.37 c 0.39,1.52 4.89,0.73 6.17,1.02 c -1.69,0.25 -3.39,0.27 -5.1,0.07 c -1.65,1.92 -2.59,1.14 -4.87,0.82 c -2.35,0.26 -4.71,0.34 -7.07,0.24 c -1.1,0.02 -1.93,-0.42 -2.51,-1.31 c 4.43,-0.66 8.89,-0.94 13.38,-0.84 Z"/></g>
<g><path fill="#ffffff" fill-opacity="0.686" d="M 1133.04,1083.17 c 0.05,0.44 -0.13,0.75 -0.54,0.92 c -2.15,0.13 -4.24,0.53 -6.29,1.21 c -1.72,-0.15 -3.45,-0.17 -5.18,-0.05 c -2.16,-0.29 -4.33,-0.35 -6.51,-0.21 c -0.68,-0.04 -1.23,-0.33 -1.64,-0.86 c 5.57,-0.07 11.11,-0.48 16.62,-1.25 c 1.19,-0.12 2.38,-0.04 3.54,0.24 Z"/></g>
<g><path fill="#ffffff" fill-opacity="0.659" d="M 1456.15,865.3 c -0.74,0.36 -1.4,0.82 -1.99,1.39 c -1.15,1.84 -2.29,3.67 -3.42,5.5 c -0.44,0.55 -1.01,0.77 -1.71,0.67 c 0.05,-2.62 1.31,-3.53 3.22,-5.04 c 0.39,-0.68 0.65,-1.4 0.8,-2.18 c 0.94,-0.77 1.97,-0.88 3.1,-0.34 Z M 1426.83,915.89 c 0.25,3.42 -1.06,3.46 -2.52,5.89 c -0.33,0.17 -0.68,0.23 -1.05,0.18 c 0.43,-1.06 0.56,-2.15 0.39,-3.27 c 0.47,-0.56 0.47,-1.13 0,-1.71 c 1.2,0.08 2.26,-0.29 3.18,-1.09 Z"/></g>
<g><path fill="#ffffff" fill-opacity="0.439" d="M 1466.68,856.74 c 0.36,0.05 0.71,0.09 1.07,0.14 c 0.14,0.43 0.28,0.86 0.43,1.3 c -1.22,0.33 -2.45,0.6 -3.69,0.81 c -0.74,0.51 -1.46,1.05 -2.16,1.62 c -3.18,-0.04 -1.94,2.74 -5.49,2.19 c 0.73,-0.86 1.36,-1.79 1.88,-2.79 c 1.29,-0.17 2.54,-0.47 3.77,-0.89 c 1.05,-2.62 1.91,-1.29 4.19,-2.38 Z"/></g>
<g><path fill="#ffffff" fill-opacity="0.533" d="M 1926.82,948.86 c 0.2,0.81 0.4,1.63 0.61,2.44 c -0.56,0.99 -0.69,2.05 -0.39,3.18 c -1.24,0.64 -2.89,0.17 -1.83,2.46 c -0.68,-0.07 -1.37,-0.07 -2.05,0 c -0.53,-1.55 1.65,-3.11 1.42,-5.09 c 0.67,-1.04 1.42,-2.04 2.24,-2.99 Z"/></g>
<g><path fill="#ffffff" fill-opacity="0.604" d="M 1331.82,790 c -0.5,2.41 -0.77,4.86 -0.82,7.34 c -1.43,0.78 -2.05,1.99 -1.85,3.62 c -0.68,0.69 -1.43,1.27 -2.25,1.73 c -0.11,-0.41 -0.11,-0.82 0.01,-1.23 c 1.42,-3.17 2.6,-6.42 3.56,-9.75 c 0.35,-0.65 0.8,-1.22 1.35,-1.71 Z"/></g>
<g><path fill="#ffffff" fill-opacity="0.42" d="M 788.58,831.7 c 0.03,0.99 0.45,1.72 1.28,2.18 c -1.42,2.22 -2.93,4.38 -4.51,6.49 c -0.47,-1.04 -0.55,-2.1 -0.22,-3.18 c 1.35,-0.81 2.07,-1.99 2.18,-3.55 c 0.45,-0.63 0.87,-1.28 1.27,-1.94 Z"/></g>
<g><path fill="#ffffff" stroke="#ffffff" stroke-width="0.5" d="M 1333.27,730.19 c 1.37,-0.55 4.02,-0.38 4.97,0.84 c 1.34,1 2.63,2.12 3.86,3.38 c 0.91,1.23 1.81,2.44 2.7,3.61 c 0.41,2.98 0.3,5.95 -0.33,8.89 c -3.28,10.63 -5.28,21.81 -8.56,32.52 c -1.65,3.48 -1.88,7.22 -4.09,10.57 c -0.55,0.49 -1,1.06 -1.35,1.71 c -0.96,3.33 -2.14,6.58 -3.56,9.75 c -0.12,0.41 -0.12,0.82 -0.01,1.23 c -1.02,2.41 -2.15,4.78 -3.37,7.11 c -4.91,9.67 -10.05,18.83 -15.68,28.16 c -0.65,0.08 -1.21,0.34 -1.68,0.8 c -0.91,2.09 -3.76,5.13 -3.99,7.27 c -0.86,2.2 -2,4.24 -3.42,6.14 c -6.33,8.6 -12.08,17.63 -18.96,25.85 c -1.77,-0.02 -3.81,3.43 -4.64,4.67 c -2.6,3.29 -5.35,6.45 -8.24,9.49 c -0.39,0.56 -0.65,1.18 -0.79,1.85 c -0.5,1.03 -1.09,1.99 -1.78,2.89 c -4.86,4.69 -9.63,9.48 -14.29,14.39 c -1.29,-0.28 -2.4,0.08 -3.34,1.08 c -1.03,1.65 -4.8,3.58 -4.41,5.64 c -2.84,2.27 -5.65,4.56 -8.44,6.88 c -10.19,7.52 -19.73,14.26 -30.98,20.04 c -7.39,3.41 -14.44,7.07 -22.06,9.62 c -0.58,0.58 -1.17,1.16 -1.76,1.74 c -1.5,-0.55 -3,-0.56 -4.51,-0.06 c -2.11,1.03 -4.32,1.79 -6.62,2.29 c -0.54,0.25 -0.86,0.66 -0.96,1.23 c -2.81,0.53 -14.21,2.64 -16.22,4.23 c -4.23,-0.19 -8.3,0.51 -12.21,2.1 c -3.03,0.12 -6.05,0.37 -9.06,0.75 c -1.21,0.24 -2.34,0.67 -3.4,1.28 c -6.31,-0.02 -13.04,0.08 -19.17,1.69 c -2.18,0.28 -4.37,0.5 -6.56,0.67 c -36.47,0.65 -72.94,0.57 -109.4,-0.25 c 0.14,-0.54 -0.02,-0.96 -0.47,-1.28 c -2.4,-0.19 -4.77,-0.6 -7.09,-1.22 c -4.32,0.33 -8.62,0.22 -12.9,-0.34 c -3.34,0.52 -6.68,0.5 -10.02,-0.07 c -2.3,0.54 -4.63,0.68 -6.98,0.42 c -0.68,0.03 -1.23,0.3 -1.67,0.81 c -1.99,0.01 -3.98,-0.04 -5.98,-0.16 c 0.18,-0.52 0.04,-0.94 -0.4,-1.25 c -11.51,-1.82 -23.34,-1.12 -34.97,-1.78 c -17.99,0.45 -35.99,0.51 -53.99,0.17 c -12.62,0.74 -25.25,1.52 -37.87,2.36 c -2.83,0.23 -5.59,0.78 -8.26,1.65 c 0.11,0.32 0.32,0.56 0.62,0.72 c -2.13,0.24 -4.29,0.48 -6.48,0.72 c -6.26,1.02 -12.51,2.16 -18.73,3.4 c -18.58,3.32 -37.31,9.89 -54.83,16.97 c -2.07,1.43 -4.11,1.12 -5.69,3.3 c -0.74,0.08 -1.49,0.16 -2.23,0.24 c -1.33,0.7 -2.71,1.24 -4.14,1.64 c -1.14,1.07 -2.46,1.88 -3.96,2.42 c -5.27,2.83 -10.54,5.73 -15.8,8.69 c -1.27,1.22 -2.68,2.23 -4.22,3.03 c -1.89,0.82 -6.43,3.41 -7.13,5.26 c -3.42,0.75 -7.19,5.87 -10.78,7.2 c -2.08,0.22 -5.56,4.63 -7.41,5.91 c -0.26,0.26 -0.4,0.57 -0.41,0.94 c -0.34,1.22 -1.14,1.99 -2.38,2.31 c -8.34,8.18 -16.43,16.63 -24.12,25.42 c -4.11,5.36 -8.22,10.71 -12.35,16.06 c -1.01,1.29 -1.91,2.65 -2.68,4.1 c -4.66,6.51 -9.08,13.15 -13.29,19.93 c -0.61,1.09 -0.7,2.22 -0.27,3.4 c -0.8,-0.45 -1.49,-0.34 -2.08,0.33 c -3.15,5.44 -6.32,10.86 -9.52,16.26 c -1.34,2.8 -2.85,5.5 -4.53,8.11 c -3.88,6.88 -7.64,13.81 -11.28,20.79 c -1.2,2.58 -2.5,5.09 -3.91,7.55 c -1.61,1.36 -1.28,2.28 -1.97,4.1 c -1.09,1.85 -2.2,3.69 -3.34,5.5 c -0.11,0.39 -0.21,0.78 -0.29,1.18 c -0.58,2.24 -4.98,7.63 -4.14,9.74 c -0.41,0.11 -0.73,0.34 -0.98,0.68 c -3.9,7.18 -7.37,14.71 -12.94,20.86 c -0.4,-0.04 -0.76,0.04 -1.09,0.26 c -2.5,2.17 -4.92,4.43 -7.26,6.78 c -0.42,0.42 -0.64,0.93 -0.69,1.52 c -2.99,1.44 -3.37,2.62 -7.3,2.63 c -0.73,0.91 -1.64,1.15 -2.72,0.71 c -4.17,0.43 -8.35,0.64 -12.54,0.62 c -32,-0.11 -64,-0.08 -96,0.09 c -8.66,0.06 -17.31,-0.11 -25.96,-0.48 c -20.01,0.3 -40.03,0.4 -60.04,0.3 c -21.33,-0.37 -42.66,-0.54 -63.99,-0.48 c -0.82,-0.04 -1.3,0.34 -1.43,1.14 c -10.2,-0.34 -20.4,-0.51 -30.6,-0.52 c -5.11,-0.74 -10.24,-1.05 -15.41,-0.94 c -0.11,-0.37 -0.35,-0.62 -0.72,-0.77 c -15.61,-0.92 -31.23,-1.68 -46.85,-2.28 c -17.36,-0.18 -34.69,-0.89 -52,-2.13 c -9.67,-0.04 -19.34,-0.14 -29,-0.29 c -5.68,-0.42 -11.35,-0.97 -17,-1.65 c -6.38,-0.23 -12.76,-0.58 -19.12,-1.03 c -0.91,-0.25 -1.38,0.06 -1.4,0.94 c -9.44,-2.62 -12.94,-1.76 -19.82,-9.73 c -3.2,-4.47 -2.68,-9.97 -3.4,-13.07 c 1.75,-1.22 1.52,-2.1 2.42,-3.79 c 1.4,-1.64 2.31,-3.53 2.72,-5.67 c 1.26,-1.99 2.14,-2.83 1.98,-5.47 c 0.22,-0.6 0.47,-1.2 0.74,-1.78 c 1.31,-2.68 2.65,-5.35 4.02,-8 c 0.37,-1.04 0.73,-2.09 1.08,-3.13 c 1.09,-1.54 2.03,-3.17 2.8,-4.9 c 1.74,-3.69 3.48,-7.38 5.21,-11.08 c 1.64,-2.99 11.57,-19.03 11.44,-21.11 c 0.69,-0.28 1.31,-0.66 1.88,-1.14 c 0.35,-0.04 0.66,-0.18 0.93,-0.41 c 1.14,-1.57 4.05,-5.66 3.88,-7.53 c 1.22,-1.85 2.35,-3.78 3.38,-5.79 c 0.42,-0.87 1,-1.62 1.73,-2.25 c 1.48,-1.68 2.78,-3.51 3.9,-5.49 c 0.35,-0.31 0.74,-0.56 1.16,-0.76 c 0.33,-0.79 0.68,-1.58 1.05,-2.35 c 0.67,-2.01 1.74,-3.77 3.23,-5.3 c 0.57,0.07 1,-0.14 1.29,-0.64 c 1.34,-2.87 4.95,-5.24 5.24,-8.38 c 0.74,-1.63 1.78,-3.04 3.14,-4.24 c 0.62,0 1.13,-0.24 1.53,-0.73 c 2.78,-3.79 5.69,-7.49 8.73,-11.09 c 0.38,-0.63 0.54,-1.31 0.5,-2.04 c 2.69,-3.16 5.4,-6.33 8.1,-9.49 c 1.41,-0.57 2.13,-1.62 2.17,-3.14 c 0.39,-0.13 0.75,-0.33 1.08,-0.58 c 7.35,-7.28 13.69,-15.44 21.96,-21.78 c 1.95,-0.24 4.45,-3.76 6.17,-4.88 c 0.34,-0.53 0.24,-0.95 -0.3,-1.26 c 4.19,-3.61 8.48,-7.09 12.87,-10.44 c 0.48,-0.8 0.53,-1.63 0.15,-2.49 c 2.83,1.12 8.89,-5.5 10.91,-7.38 c 2.77,-0.75 10.34,-6.57 13.14,-8.54 c 1.79,-0.11 3.43,-0.66 4.94,-1.66 c 3.42,-2.21 6.93,-4.28 10.53,-6.21 c 0.3,-0.27 0.43,-0.6 0.39,-0.99 c 0.13,-0.4 0.4,-0.68 0.8,-0.85 c 10.66,-5.19 20.97,-10 32.17,-13.86 c 1.33,-0.25 8.86,-2.05 9.1,-3.05 c 3.48,0.53 9.1,-2.15 13.04,-2.2 c 0.41,1.97 5.34,0.65 6.55,0.39 c 2.19,0.41 2.22,0.47 3.96,-0.84 c 2.04,0.15 4.03,-0.04 6,-0.57 c 4.03,0.49 8.04,0.34 12.03,-0.44 c 5,-0.18 10,-0.18 15,0.02 c 1.65,0.32 3.31,0.54 4.99,0.65 c 4.04,-0.02 8.09,-0.08 12.13,-0.17 c 2.29,0.73 4.59,0.79 6.91,0.16 c 1.2,0.12 2.26,0.58 3.17,1.38 c 2.01,0.12 4,0.11 5.97,-0.04 c -0.42,-0.86 -0.24,-1.56 0.55,-2.09 c 5.55,0.79 11.14,1.31 16.74,1.56 c -0.26,2.27 2.1,1.43 3.5,1.76 c 2.88,1.29 4.98,0.94 8.04,0.51 c 2.97,0.17 5.94,0.28 8.92,0.31 c 0.53,-0.17 0.77,-0.53 0.73,-1.09 c 4.7,0.43 9.4,0.65 14.12,0.66 c 0.21,0 0.42,0.01 0.63,0.01 c -0.11,0.38 -0.24,0.74 -0.39,1.1 c 1.44,0.26 2.83,0.68 4.18,1.27 c 7.76,-0.36 15.52,-0.35 23.27,0.04 c 18.46,-0.11 36.91,-0.15 55.36,-0.12 c 4.7,-0.82 9.43,-1.33 14.2,-1.55 c 0.66,0.01 1.19,-0.24 1.59,-0.75 c 6.95,-0.07 13.89,-0.4 20.81,-1.01 c 0.58,0.89 1.41,1.33 2.51,1.31 c 2.36,0.1 4.72,0.02 7.07,-0.24 c 2.28,0.32 3.22,1.1 4.87,-0.82 c 1.71,0.2 3.41,0.18 5.1,-0.07 c -1.28,-0.29 -5.78,0.5 -6.17,-1.02 c 4.59,0.03 9.18,-0.13 13.76,-0.46 c 0.05,0.84 0.51,1.22 1.39,1.11 c 3.36,-0.03 6.71,-0.25 10.05,-0.66 c 1.25,0.25 2.51,0.36 3.79,0.33 c 1.03,-0.55 2.11,-0.99 3.23,-1.33 c 3.34,-0.29 6.68,-0.44 10.04,-0.45 c 1.98,-0.52 4,-0.79 6.04,-0.82 c 0.7,-0.12 1.35,-0.36 1.96,-0.7 c -0.84,-0.13 -1.56,-0.45 -2.17,-0.94 c 7.34,0.21 13.9,-2.21 21.09,-2.59 c 5.57,-1.62 11.96,-2.1 17.45,-3.88 c -0.18,2.45 6.68,-0.56 7.72,-0.79 c 2.08,-0.31 4.15,-0.64 6.21,-1 c 1.46,-0.94 3.02,-1.59 4.71,-1.94 c -0.12,-0.28 -0.32,-0.47 -0.62,-0.56 c 1.86,-2.82 5.47,-0.54 7.21,-2.59 c 4.98,-0.98 9.94,-2.16 14.88,-3.54 c 2.3,-1.86 5.7,-0.97 7.71,-2.62 c 0.34,0.64 0.86,0.93 1.57,0.87 c 1.88,-0.82 3.84,-1.32 5.89,-1.48 c 1.8,-1.25 3.8,-1.88 6,-1.89 c 0.56,-0.18 0.84,-0.57 0.85,-1.17 c 1.48,-1.68 19.81,-8.23 22.95,-11.22 c 0.66,-0.23 1.33,-0.34 2.03,-0.35 c 1.11,-0.02 2.04,-0.45 2.79,-1.29 c 0.8,-0.3 1.62,-0.59 2.43,-0.88 c 1.77,-1.13 3.56,-2.23 5.36,-3.3 c -0.14,-0.29 -0.38,-0.43 -0.73,-0.44 c 5.14,-3.99 13.54,-8.8 18.12,-13.08 c 0.69,0.19 1.35,0.11 1.98,-0.21 c 4.05,-3.31 8.11,-6.58 12.19,-9.83 c 3.85,-3.81 7.71,-7.61 11.58,-11.4 c 0.59,-0.45 3.67,-1.81 1.15,-2.44 c 10.49,-10.99 19.41,-22.26 28.44,-34.46 c 1.58,-2.11 3.09,-4.27 4.51,-6.49 c 4.21,-6.5 8.36,-13.08 12.44,-19.74 c 0.66,0.05 1.24,-0.15 1.72,-0.6 c 0.57,-1.26 1.35,-2.37 2.33,-3.33 c 0.36,-1.08 0.52,-2.19 0.5,-3.33 c 1.02,-1.95 2.11,-3.85 3.28,-5.7 c 0.06,-0.4 0.13,-0.8 0.19,-1.19 c 0.62,0.11 1.19,-0.03 1.69,-0.42 c 1.24,-1.69 2.5,-5.67 4.2,-6.82 c 0.51,-1.89 1.33,-3.63 2.46,-5.24 c 0.06,-0.43 -0.13,-0.67 -0.56,-0.71 c 0.07,-0.39 0.15,-0.78 0.24,-1.17 c 3.41,-5.98 6.65,-12.05 9.72,-18.2 c 0.39,-0.89 0.3,-1.74 -0.27,-2.55 c 1.05,0.25 1.85,-0.08 2.42,-1 c 0.93,-3.91 3.64,-7.8 5.04,-11.75 c 2.47,-4.24 5.11,-8.37 7.91,-12.42 c 1,-1.51 3.56,-1.44 4.07,-3.13 c 2.19,-1.71 1.66,-2.91 4.99,-2.97 c 1.61,-1.83 1.87,-1.89 4.48,-2.05 c 0.92,-0.23 1.83,-0.48 2.74,-0.73 c 3.03,-0.13 6.05,-0.38 9.05,-0.73 c 16,0.14 32,0.35 48,0.61 c 6,0.03 12,-0.12 17.99,-0.44 c 1.36,0.15 2.71,0.31 4.07,0.45 c 15.98,-0.01 31.96,-0.12 47.94,-0.31 c 1.67,0.13 3.35,0.24 5.03,0.32 c 1.65,-0.2 3.31,-0.33 4.97,-0.38 c 32.35,-0.1 64.69,0.02 97.03,0.35 c 2.66,-0.59 5.31,-0.58 7.95,0.05 c 1.34,-0.15 2.68,-0.31 4.02,-0.47 c 26.67,0.03 53.34,0.03 80,0.02 c 0.99,0.11 1.98,0.24 2.96,0.39 c 3.03,-0.57 6.06,-0.52 9.07,0.14 c 21.98,-0.08 43.96,-0.07 65.95,0.01 c 1.33,-0.2 2.68,-0.38 4.02,-0.54 c 14,0.02 28,0.01 42,-0.02 c 6,1.01 11.97,-0.2 18,0.03 c 1.79,-0.25 4.24,0.95 5.77,-0.12 Z M 1468.18,858.18 c 2.75,-0.52 5.52,-0.8 8.33,-0.84 c 7.33,-0.15 14.66,-0.23 21.99,-0.25 c 75,0.02 150,0.04 225,0.07 c 6.99,0.14 13.97,0.32 20.95,0.53 c 6.35,-0.2 12.7,-0.35 19.05,-0.46 c 49.32,0.3 98.64,0.38 147.96,0.25 c 10.01,-0.47 20.01,-0.5 30.02,-0.1 c 2.22,0.18 4.4,0.52 6.56,1.01 c 0.38,-0.2 0.67,-0.5 0.87,-0.9 c 13,7.42 2.2,22.26 1.78,32.83 c -1.07,2.4 -1.76,4.91 -2.08,7.53 c -1.24,4.35 -2.61,8.66 -4.12,12.93 c -2.86,5.92 -3.99,12.16 -7.37,17.79 c -0.32,0.77 -0.41,1.57 -0.28,2.39 c -0.33,0.07 -0.58,0.26 -0.74,0.57 c -2.77,5.97 -5.86,11.75 -9.28,17.33 c -0.82,0.95 -1.57,1.95 -2.24,2.99 c 0.23,1.98 -1.95,3.54 -1.42,5.09 c -13.1,19.6 -25.5,40.22 -41.37,57.85 c -6.19,7.88 -16.13,17.91 -23.53,25.02 c -0.77,0.39 -1.48,0.87 -2.12,1.43 c -0.73,-0.05 -1.4,0.13 -2.01,0.55 c -1.58,1.45 -3.24,2.82 -4.96,4.12 c -1.22,0.73 -1.87,1.78 -1.94,3.16 c -2.11,1.83 -4.26,3.58 -6.45,5.26 c -2.48,1.47 -4.88,3.07 -7.18,4.8 c -0.6,0.53 -0.77,1.18 -0.51,1.94 c -2.27,-1.05 -9.04,4.69 -11.45,5.6 c -4.21,2.41 -8.47,4.75 -12.78,7 c -10.91,5.48 -22.33,9.46 -33.84,13.09 c -1.07,-1.72 -6.38,0.16 -7.91,1 c -1.34,0.41 -4.83,0.18 -5.14,2 c -1.01,0.32 -2.03,0.63 -3.05,0.93 c -2.97,0.22 -5.84,0.85 -8.62,1.88 c -3.29,0.28 -9.96,0.6 -12.78,2.11 c -6.13,0.46 -14.35,0.08 -20.03,2.25 c -39.61,0.48 -79.27,0.72 -118.9,-0.43 c 0.25,-0.5 0.2,-0.95 -0.16,-1.35 c -3.36,-0.33 -6.71,-0.63 -10.06,-0.91 c -8.65,-0.35 -17.32,-0.51 -26.01,-0.49 c -0.82,-0.09 -1.55,-0.41 -2.17,-0.98 c -4.23,-0.65 -8.45,-0.62 -12.67,0.09 c -0.77,-0.2 -1.55,-0.31 -2.33,-0.32 c 0.68,0.62 1.49,0.95 2.43,0.98 c -1.58,0 -3.13,0.24 -4.63,0.73 c -36.52,-1.89 -73.87,-1.26 -110.33,1.06 c -8.91,1.39 -19,2.27 -27.68,3.83 c -2.02,-0.65 -4.08,-0.78 -6.18,-0.38 c -1.62,0.77 -3.26,1.46 -4.93,2.07 c -5.55,2.26 -12.11,2.96 -17.88,4.7 c -0.98,0.19 -1.76,0.68 -2.34,1.48 c -2.43,-0.97 -22.12,6.64 -23.85,7.91 c -2.43,-0.46 -4.44,0.71 -6.42,1.89 c -0.87,0.22 -1.74,0.41 -2.63,0.56 c -2.09,1.17 -4.16,2.36 -6.23,3.58 c -2.1,0.62 -2.72,0.06 -4.29,1.81 c -1.91,1.01 -2.96,0.23 -4.25,2.25 c -6.97,3.55 -13.87,7.42 -20.3,11.84 c -3.13,0.12 -3.92,1.86 -6.46,2.87 c -0.73,0.72 -1.4,1.47 -2.04,2.27 c -2.74,3.14 -10.4,8.34 -14.06,11.25 c -0.73,-0.04 -1.39,0.16 -1.99,0.58 c -1.72,1.94 -3.67,3.56 -5.88,4.89 c -1.69,1.92 -3.48,3.74 -5.36,5.48 c -0.53,0.52 -0.76,1.15 -0.7,1.88 c -2.08,2.98 -4.47,5.69 -7.17,8.11 c -2,-0.53 -3.54,3.23 -5.3,4 c -0.58,0.74 -0.83,1.58 -0.74,2.53 c -2.71,3.49 -5.48,6.93 -8.31,10.31 c -0.82,1.99 -2.08,3.63 -3.8,4.91 c -4.58,6.23 -9,12.57 -13.26,19.04 c -1.07,2.08 -4.31,5.79 -4.47,7.99 c -2.06,1.89 -1.78,1.64 -2.55,4.45 c -0.27,0.34 -0.6,0.5 -1.02,0.48 c -1.56,3.67 -8.28,10.5 -6.22,14.32 c -0.17,0.63 -0.57,1 -1.22,1.1 c -1.29,-0.96 -2.7,3.07 -3.65,3.68 c -3.26,5.47 -6.41,10.99 -9.45,16.56 c -0.64,1.26 -0.55,2.46 0.28,3.61 c 0.25,1.06 -0.12,1.75 -1.1,2.08 c -1.68,0.27 -2.87,1.18 -3.57,2.75 c -8.35,15.22 -15.44,32.13 -24.7,46.46 c -8.36,11.01 -13.14,15.36 -26.95,18.06 c -24.07,2.49 -50.13,0.61 -74.48,1.17 c -53.82,-1.36 -107.69,-0.72 -161.54,-1.54 c 0.12,-0.5 -0.04,-0.88 -0.5,-1.13 c -2.02,0.02 -4,-0.22 -5.95,-0.71 c -4.4,-0.11 -8.79,0.04 -13.16,0.44 c -1.02,-0.37 -1.97,-0.86 -2.87,-1.45 c -5.66,0.19 -11.39,-0.35 -16.99,0.51 c -10.02,-0.39 -20.04,-0.68 -30.06,-0.89 c -0.9,-0.06 -1.37,0.35 -1.4,1.23 c -3.98,-0.28 -7.97,-0.36 -11.96,-0.25 c -1.78,-2.5 -5.22,-1.22 -7.73,-1.11 c -0.99,-0.42 -1.92,-0.92 -2.81,-1.5 c -4.03,-0.02 -8.04,0.13 -12.04,0.44 c -8.02,-0.34 -16.03,-0.6 -24.05,-0.78 c -0.86,-0.1 -1.34,0.27 -1.43,1.09 c -3.61,-0.21 -7.23,-0.28 -10.85,-0.22 c -0.04,-0.64 -0.37,-1.04 -0.99,-1.2 c -2.11,0.19 -4.07,-0.23 -5.87,-1.26 c -4.28,-0.13 -8.55,-0.01 -12.81,0.38 c -7.69,-0.07 -15.38,-0.29 -23.06,-0.66 c -0.93,-0.16 -1.4,0.22 -1.4,1.14 c -3.31,-0.33 -6.62,-0.45 -9.94,-0.35 c -0.9,-1.28 -6.02,-1.43 -7.59,-1.53 c -0.65,-0.4 -1.33,-0.7 -2.05,-0.91 c -2.61,0.32 -5.2,0.27 -7.8,-0.12 c -0.64,0.31 -0.94,0.83 -0.88,1.57 c -4.21,-0.88 -8.47,-1.28 -12.79,-1.19 c -0.29,-1.09 -2.83,-1.85 -3.74,-2.28 c -1.18,0.39 -4.69,-0.48 -5.39,0.33 c -10.37,1.41 -22.53,-12.74 -17.23,-22.46 c 0.31,-1.09 0.57,-2.19 0.8,-3.3 c 5.87,-13.77 12.82,-27.17 19.58,-40.54 c 0.11,-0.54 0.04,-1.05 -0.22,-1.53 c 2.31,-2.13 3.95,-4.7 4.92,-7.71 c 2.17,-3.18 4.22,-6.44 6.13,-9.79 c 0.4,-0.7 0.44,-1.41 0.12,-2.14 c 1.86,-0.12 6.94,-9.52 7.91,-11.42 c 0.91,-0.14 1.69,-0.52 2.36,-1.13 c 2.16,-3.79 4.46,-7.49 6.91,-11.1 c 0.54,-0.83 0.77,-1.73 0.69,-2.71 c 0.58,-0.87 1.31,-1.59 2.17,-2.17 c 0.54,-0.09 0.96,-0.35 1.28,-0.79 c 3.59,-5.05 7.23,-10.07 10.93,-15.06 c 0.63,-0.77 0.58,-1.48 -0.15,-2.12 c 16.81,-19.83 32.97,-38.83 53.1,-55.56 c 3.09,-2.57 5.84,-5.57 9.19,-7.85 c 0.86,-0.95 1.79,-1.81 2.79,-2.6 c 10.05,-7.08 20.1,-14.5 30.97,-20.53 c 0.56,-0.53 1.15,-1.03 1.77,-1.5 c 0.83,0.4 1.68,0.45 2.56,0.14 c 3.66,-2 7.36,-3.97 11.08,-5.89 c 1.35,-0.92 3.11,0.02 3.21,-2.06 c 9.85,-5.59 24.99,-9.65 36,-12.55 c 3.16,-0.72 8.91,-0.06 11.21,-2.66 c 2.76,0.19 5.52,0.16 8.29,-0.08 c 18.09,-2.4 34.93,-0.77 52.95,0.12 c 11.35,-0.06 22.54,2.48 33.83,2.11 c -0.29,0.79 -0.84,1.33 -1.65,1.6 c 1.74,-0.34 3.49,-0.35 5.24,-0.03 c 0.98,0.38 1.97,0.69 2.98,0.95 c 4.31,-0.08 8.62,-0.11 12.92,-0.1 c 8.41,0.7 16.82,1.11 25.22,1.21 c -0.09,0.34 -0.21,0.66 -0.35,0.97 c 19.02,-0.06 38.07,-0.16 57.13,-0.3 c 3.24,0.15 6.48,0.27 9.72,0.36 c 2.05,-1.82 7.57,-0.88 10.28,-1.38 c 0.94,-0.3 3.09,1.2 3.6,0.09 c 4.1,-0.94 8.23,-1.1 12.39,-0.49 c 2.18,-0.2 4.36,-0.36 6.54,-0.48 c 1.73,-0.12 3.46,-0.1 5.18,0.05 c 2.05,-0.68 4.14,-1.08 6.29,-1.21 c 0.41,-0.17 0.59,-0.48 0.54,-0.92 c 6.72,-0.09 13.42,-0.41 20.11,-0.96 c -0.08,0.6 0.16,1 0.73,1.21 c 3.27,-0.22 6.53,-0.25 9.77,-0.12 c 0.1,-0.81 -0.14,-1.52 -0.72,-2.12 c 2.03,-0.03 4.07,-0.08 6.1,-0.16 c 5.14,0.1 10.21,-0.42 15.21,-1.56 c 7.39,-0.59 14.72,-1.55 21.99,-2.86 c 1.6,0.13 3.04,-0.29 4.3,-1.27 c 4.86,-0.05 9.53,-1.01 14,-2.86 c 1.13,0.15 5.25,0.17 5.25,-1.54 c 1.2,-1.8 3.9,0.21 5.74,-0.43 c 5.83,-2.26 12.5,-3.56 18.49,-5.65 c 1.47,0.27 2.95,0.28 4.43,0.04 c 2.07,-0.34 5.03,-2.37 7.09,-1.4 c -0.7,-0.22 -1.23,-0.65 -1.59,-1.28 c 2.1,-0.48 4.13,-1.14 6.1,-1.98 c 0.12,0.75 0.58,1.01 1.38,0.77 c 1.85,-0.23 3.59,-0.82 5.2,-1.77 c 1.51,-0.3 3.04,-0.53 4.57,-0.69 c 0.51,-0.4 1.02,-0.8 1.52,-1.22 c 0.83,-0.34 3.05,-0.14 3.13,-1.39 c 0.39,-0.47 0.85,-0.86 1.37,-1.17 c 1.75,-0.15 3.37,-0.67 4.88,-1.55 c 7.36,-2.88 14,-6.51 20.95,-10.05 c 8.86,-4.39 16.84,-10.37 24.94,-15.82 c 5.22,-3.09 25.4,-22.29 27.91,-23.74 c 0.63,-0.04 1.16,-0.27 1.6,-0.7 c 1.08,-1.46 2.28,-2.83 3.6,-4.09 c 0.45,-0.53 0.69,-1.14 0.71,-1.84 c 1.6,-2.64 13,-15.83 16.07,-19.17 c 2.01,-0.88 4.68,-4.53 5.06,-6.77 c 0.58,-2.11 6.64,-9.62 8.02,-12.19 c 0.42,0.16 0.84,0.12 1.23,-0.1 c 0.68,-0.99 1.47,-1.87 2.37,-2.66 c 0.73,-2.57 2.89,-2.62 2.34,-6.07 c 4.26,-6.51 8.3,-13.16 12.13,-19.96 c 1.38,-2.73 2.79,-5.43 4.24,-8.09 c 0.37,0.05 0.72,-0.01 1.05,-0.18 c 1.46,-2.43 2.77,-2.47 2.52,-5.89 c 0.79,-1.6 1.65,-3.16 2.57,-4.7 c 5,-8.99 9.33,-18 13.69,-27.19 c 0.05,-1.16 4.89,-10.3 5.94,-11.14 c 0.7,0.1 1.27,-0.12 1.71,-0.67 c 1.13,-1.83 2.27,-3.66 3.42,-5.5 c 0.59,-0.57 1.25,-1.03 1.99,-1.39 c 0.36,-0.4 0.6,-0.87 0.72,-1.39 c -0.01,-0.37 -0.02,-0.74 -0.03,-1.11 c 3.55,0.55 2.31,-2.23 5.49,-2.19 c 0.7,-0.57 1.42,-1.11 2.16,-1.62 c 1.24,-0.21 2.47,-0.48 3.69,-0.81 Z"/></g>
</svg>
